<svg width="16" height="15" viewBox="0 0 16 15" fill="none" xmlns="http://www.w3.org/2000/svg">
<path d="M13.0113 10.2927C12.2685 11.6701 11.0673 12.7442 9.6157 13.329C8.16413 13.9138 6.55371 13.9724 5.0635 13.4945C3.57329 13.0167 2.29719 12.0326 1.45632 10.7128C0.61545 9.39293 0.262797 7.82051 0.459466 6.26797C0.656135 4.71544 1.38973 3.28062 2.53315 2.21214C3.67656 1.14366 5.15774 0.508844 6.72002 0.417696C8.28231 0.326547 9.82726 0.784807 11.0872 1.71307C12.3471 2.64133 13.2426 3.98111 13.6184 5.50024" stroke="white" stroke-width="0.812629"/>
<path d="M7.94466 10.0009V10.8127H3.19444V10.0009H5.16913V4.97644C4.59866 5.32019 4.20372 5.54691 3.98431 5.65661C3.77222 5.75901 3.59303 5.8102 3.44676 5.8102C3.05182 5.8102 2.85435 5.56885 2.85435 5.08615C3.65885 4.77166 4.74128 4.20851 6.10162 3.39669L6.45267 3.57222V10.0009H7.94466Z" fill="white"/>
<path d="M11.1816 8.72129C11.1816 8.64392 11.1696 8.57514 11.1455 8.51496C11.1231 8.45478 11.0827 8.39976 11.0243 8.34989C10.9658 8.30003 10.8833 8.25189 10.7767 8.20546C10.6718 8.15732 10.5377 8.10831 10.3743 8.05845C10.1955 8.00343 10.0304 7.94239 9.87913 7.87533C9.72954 7.80655 9.59886 7.72746 9.4871 7.63805C9.37534 7.54692 9.28851 7.44289 9.22661 7.32597C9.16471 7.20733 9.13376 7.07064 9.13376 6.91589C9.13376 6.76286 9.16557 6.62359 9.22919 6.49807C9.29452 6.37255 9.38651 6.26423 9.50515 6.1731C9.62551 6.08025 9.76737 6.00889 9.93071 5.95903C10.0941 5.90744 10.2746 5.88165 10.4723 5.88165C10.7509 5.88165 10.9907 5.93324 11.1919 6.0364C11.3948 6.13957 11.5504 6.27798 11.6587 6.45164C11.7688 6.62531 11.8238 6.81702 11.8238 7.02679H11.1816C11.1816 6.90299 11.1549 6.79381 11.1016 6.69924C11.0501 6.60295 10.971 6.5273 10.8644 6.47228C10.7595 6.41725 10.6262 6.38974 10.4646 6.38974C10.3116 6.38974 10.1843 6.41296 10.0829 6.45938C9.98144 6.50581 9.90578 6.56856 9.85592 6.64766C9.80605 6.72675 9.78112 6.81616 9.78112 6.91589C9.78112 6.98639 9.79746 7.05086 9.83013 7.10932C9.8628 7.16607 9.91266 7.21937 9.97972 7.26923C10.0468 7.31738 10.131 7.36294 10.2325 7.40593C10.3339 7.44891 10.4534 7.49018 10.591 7.52973C10.799 7.59162 10.9804 7.6604 11.1352 7.73606C11.2899 7.80999 11.4189 7.89424 11.522 7.98881C11.6252 8.08338 11.7026 8.19085 11.7542 8.31121C11.8058 8.42985 11.8315 8.56482 11.8315 8.71613C11.8315 8.87432 11.7997 9.01703 11.7361 9.14427C11.6725 9.26979 11.5814 9.37725 11.4627 9.46666C11.3458 9.55435 11.2048 9.62227 11.0397 9.67041C10.8764 9.71684 10.6941 9.74005 10.493 9.74005C10.3124 9.74005 10.1345 9.71598 9.95908 9.66784C9.78542 9.61969 9.62723 9.54662 9.48452 9.44861C9.34181 9.34888 9.22833 9.22508 9.14407 9.07721C9.05982 8.92762 9.0177 8.7531 9.0177 8.55365H9.66506C9.66506 8.67573 9.68569 8.77975 9.72696 8.86572C9.76995 8.95169 9.82927 9.02219 9.90492 9.07721C9.98058 9.13051 10.0683 9.17006 10.168 9.19585C10.2694 9.22164 10.3778 9.23454 10.493 9.23454C10.6443 9.23454 10.7707 9.21305 10.8721 9.17006C10.9753 9.12708 11.0526 9.0669 11.1042 8.98952C11.1558 8.91215 11.1816 8.82274 11.1816 8.72129ZM13.949 5.93324V9.68847H13.3068V5.93324H13.949ZM15.1277 5.93324V6.44906H12.1385V5.93324H15.1277Z" fill="white"/>
</svg>
