<svg width="13" height="15" viewBox="0 0 13 15" fill="none" xmlns="http://www.w3.org/2000/svg">
<path d="M2.246 2.24597H10.966C11.2965 2.24597 11.6134 2.37725 11.8471 2.61092C12.0807 2.84459 12.212 3.16151 12.212 3.49197V12.212C12.212 12.5424 12.0807 12.8594 11.8471 13.093C11.6134 13.3267 11.2965 13.458 10.966 13.458H2.246C2.08229 13.458 1.92018 13.4257 1.76895 13.363C1.61771 13.3003 1.48031 13.2085 1.36459 13.0927C1.24888 12.9769 1.15712 12.8394 1.09456 12.6881C1.032 12.5368 0.999869 12.3747 1 12.211V3.49197C1 3.32834 1.03223 3.16632 1.09485 3.01515C1.15746 2.86398 1.24924 2.72662 1.36495 2.61092C1.48065 2.49521 1.61801 2.40344 1.76918 2.34082C1.92035 2.2782 2.08237 2.24597 2.246 2.24597V2.24597Z" stroke="#222222" stroke-width="1.5" stroke-linecap="round" stroke-linejoin="round"/>
<path d="M9.09698 1V3.491" stroke="#222222" stroke-width="1.5" stroke-linecap="round" stroke-linejoin="round"/>
<path d="M4.11401 1V3.491" stroke="#222222" stroke-width="1.5" stroke-linecap="round" stroke-linejoin="round"/>
<path d="M1 5.98297H12.211" stroke="#222222" stroke-width="1.5" stroke-linecap="round" stroke-linejoin="round"/>
</svg>
