<svg width="40" height="40" viewBox="0 0 40 40" fill="none" xmlns="http://www.w3.org/2000/svg">
<circle cx="20" cy="20" r="20" fill="#1DAB87" fill-opacity="0.1"/>
<path d="M25.6401 29.0299H14.6001C13.5001 29.0299 12.6001 28.1299 12.6001 27.0299V20.8799C12.6001 19.7799 13.5001 18.8799 14.6001 18.8799H25.6401C26.7401 18.8799 27.6401 19.7799 27.6401 20.8799V27.0299C27.6401 28.1299 26.7401 29.0299 25.6401 29.0299Z" fill="#03835E" stroke="#03835E" stroke-width="1.2" stroke-miterlimit="10" stroke-linecap="round" stroke-linejoin="round"/>
<path d="M24.5901 18.8796V16.0696C24.5901 13.5996 22.5901 11.5996 20.1201 11.5996C17.6501 11.5996 15.6501 13.5996 15.6501 16.0696V18.8796" stroke="#03835E" stroke-width="1.2" stroke-miterlimit="10" stroke-linecap="round" stroke-linejoin="round"/>
<path d="M20.8399 22.7298C20.8399 23.1274 20.5175 23.4498 20.1199 23.4498C19.7223 23.4498 19.3999 23.1274 19.3999 22.7298C19.3999 22.3321 19.7223 22.0098 20.1199 22.0098C20.5175 22.0098 20.8399 22.3321 20.8399 22.7298Z" fill="white" stroke="white"/>
<path d="M24.94 22.7298C24.94 23.1274 24.6176 23.4498 24.22 23.4498C23.8224 23.4498 23.5 23.1274 23.5 22.7298C23.5 22.3321 23.8224 22.0098 24.22 22.0098C24.6176 22.0098 24.94 22.3321 24.94 22.7298Z" fill="white" stroke="white"/>
<path d="M16.94 22.7298C16.94 23.1274 16.6176 23.4498 16.22 23.4498C15.8224 23.4498 15.5 23.1274 15.5 22.7298C15.5 22.3321 15.8224 22.0098 16.22 22.0098C16.6176 22.0098 16.94 22.3321 16.94 22.7298Z" fill="white" stroke="white"/>
</svg>
