<svg width="17" height="22" viewBox="0 0 17 22" fill="none" xmlns="http://www.w3.org/2000/svg">
<g clip-path="url(#clip0_130_11814)">
<path d="M7.9679 1.23865C5.49712 1.23868 3.46665 3.222 3.46668 5.64963V8.02403C3.46483 8.48802 3.84646 8.86462 4.31663 8.86282C4.78489 8.86194 5.16348 8.48612 5.16165 8.02403V5.64963C5.16165 4.13407 6.40326 2.91134 7.9679 2.91134C9.53254 2.91131 10.7742 4.13407 10.7742 5.64963V8.02403C10.7723 8.48805 11.1539 8.86465 11.6242 8.86282C12.0917 8.86099 12.4693 8.48546 12.4675 8.02403V5.64963L12.4659 5.5909C12.4335 3.18995 10.4188 1.23865 7.9679 1.23865Z" fill="white"/>
<path d="M3.63586 7.15745C2.19167 7.15745 1.00012 8.33344 1.00012 9.75854V17.0015C1.00012 18.4266 2.19167 19.6042 3.63586 19.6042H7.78083C8.26199 19.6042 8.48251 19.2535 8.36536 18.7936C8.26872 18.414 8.21909 18.0233 8.21877 17.6298C8.21913 14.9796 10.3966 12.8316 13.0821 12.8321C13.4271 12.8322 13.7703 12.8684 14.106 12.9398C14.5758 13.0396 14.9367 12.81 14.9367 12.3353V9.76013C14.9367 8.33497 13.7501 7.15738 12.306 7.15738L3.63586 7.15745Z" fill="white"/>
<path d="M13.0813 13.9893C12.1027 13.9894 11.1642 14.373 10.4722 15.0559C9.78016 15.7389 9.39139 16.665 9.39136 17.6308C9.39139 18.5966 9.78016 19.5228 10.4722 20.2057C11.1642 20.8886 12.1027 21.2723 13.0813 21.2723C14.06 21.2723 14.9986 20.8886 15.6906 20.2057C16.3826 19.5228 16.7714 18.5966 16.7714 17.6308C16.7714 16.665 16.3826 15.7388 15.6906 15.0559C14.9986 14.373 14.06 13.9894 13.0813 13.9893ZM13.0686 15.0789C13.1648 15.0744 13.2601 15.0994 13.3415 15.1503L14.1228 15.6413C14.1889 15.6831 14.2433 15.7407 14.281 15.8087C14.3187 15.8767 14.3384 15.9529 14.3384 16.0304C14.3384 16.1079 14.3187 16.1841 14.281 16.2521C14.2433 16.3201 14.1889 16.3776 14.1228 16.4195L13.3415 16.9105C13.2755 16.9517 13.2 16.976 13.1221 16.9811C13.0441 16.9862 12.9661 16.972 12.8951 16.9398C12.8241 16.9076 12.7624 16.8584 12.7156 16.7967C12.6688 16.735 12.6384 16.6627 12.6271 16.5864C12.4934 16.6423 12.3705 16.7225 12.2659 16.8261C11.8117 17.274 11.8117 17.9885 12.2659 18.4365C12.7202 18.8844 13.4446 18.8844 13.8987 18.4365C14.2069 18.1311 14.3029 17.6996 14.1922 17.3172C14.1586 17.1995 14.1737 17.0734 14.2341 16.9667C14.2946 16.8599 14.3954 16.7811 14.5146 16.7476C14.6339 16.7145 14.7616 16.7294 14.8697 16.7889C14.9779 16.8484 15.0578 16.9477 15.0919 17.0651C15.2932 17.7626 15.1111 18.5433 14.5631 19.0881C14.5621 19.0881 14.5641 19.0881 14.5631 19.0881C13.7507 19.8894 12.4179 19.8893 11.6055 19.0881C10.7931 18.2869 10.7931 16.9754 11.6055 16.1742C11.8868 15.897 12.2407 15.7071 12.6227 15.6217V15.5393C12.623 15.457 12.6457 15.3763 12.6883 15.3055C12.7309 15.2347 12.7918 15.1764 12.8649 15.1367C12.9279 15.1021 12.9966 15.0823 13.0686 15.0789Z" fill="white"/>
</g>
<defs>
<clipPath id="clip0_130_11814">
<rect width="17" height="21" fill="white" transform="translate(0.00012207 0.871979)"/>
</clipPath>
</defs>
</svg>
