<svg width="25" height="25" viewBox="0 0 25 25" fill="none" xmlns="http://www.w3.org/2000/svg">
<path fill-rule="evenodd" clip-rule="evenodd" d="M0.578613 12.5C0.578613 9.33825 1.83461 6.30599 4.07031 4.0703C6.30601 1.8346 9.33826 0.578598 12.5 0.578598C15.6618 0.578598 18.694 1.8346 20.9297 4.0703C23.1654 6.30599 24.4214 9.33825 24.4214 12.5C24.4214 15.6618 23.1654 18.694 20.9297 20.9297C18.694 23.1654 15.6618 24.4214 12.5 24.4214C9.33826 24.4214 6.30601 23.1654 4.07031 20.9297C1.83461 18.694 0.578613 15.6618 0.578613 12.5ZM12.5 2.2886C9.79178 2.2886 7.19447 3.36444 5.27946 5.27945C3.36445 7.19446 2.28861 9.79177 2.28861 12.5C2.28861 15.2082 3.36445 17.8055 5.27946 19.7205C7.19447 21.6356 9.79178 22.7114 12.5 22.7114C15.2082 22.7114 17.8056 21.6356 19.7206 19.7205C21.6356 17.8055 22.7114 15.2082 22.7114 12.5C22.7114 9.79177 21.6356 7.19446 19.7206 5.27945C17.8056 3.36444 15.2082 2.2886 12.5 2.2886ZM16.7372 8.2646C16.9059 8.43337 17.0007 8.66225 17.0007 8.9009C17.0007 9.13955 16.9059 9.36842 16.7372 9.5372L13.7726 12.5L16.7372 15.4628C16.9062 15.6318 17.0012 15.861 17.0012 16.1C17.0012 16.339 16.9062 16.5682 16.7372 16.7372C16.5682 16.9062 16.339 17.0011 16.1 17.0011C15.861 17.0011 15.6318 16.9062 15.4628 16.7372L12.5 13.7726L9.53721 16.7372C9.45354 16.8209 9.3542 16.8873 9.24486 16.9325C9.13553 16.9778 9.01835 17.0011 8.90001 17.0011C8.78168 17.0011 8.66449 16.9778 8.55516 16.9325C8.44583 16.8873 8.34649 16.8209 8.26281 16.7372C8.17914 16.6535 8.11276 16.5542 8.06747 16.4448C8.02219 16.3355 7.99888 16.2183 7.99888 16.1C7.99888 15.9817 8.02219 15.8645 8.06747 15.7551C8.11276 15.6458 8.17914 15.5465 8.26281 15.4628L11.2274 12.5L8.26281 9.5372C8.09382 9.3682 7.99888 9.139 7.99888 8.9C7.99888 8.661 8.09382 8.43179 8.26281 8.2628C8.43181 8.0938 8.66102 7.99886 8.90001 7.99886C9.13901 7.99886 9.36822 8.0938 9.53721 8.2628L12.5 11.2274L15.4628 8.2628C15.5464 8.17898 15.6457 8.11249 15.7551 8.06712C15.8644 8.02174 15.9816 7.99839 16.1 7.99839C16.2184 7.99839 16.3356 8.02174 16.445 8.06712C16.5543 8.11249 16.6536 8.18078 16.7372 8.2646Z" fill="#222222"/>
</svg>
