<svg width="15" height="15" viewBox="0 0 15 15" fill="none" xmlns="http://www.w3.org/2000/svg">
<path d="M13.456 7.228C13.456 8.45974 13.0908 9.66382 12.4065 10.688C11.7222 11.7122 10.7495 12.5104 9.61159 12.9818C8.47363 13.4532 7.22143 13.5766 6.01335 13.3364C4.80526 13.0962 3.69554 12.5031 2.8245 11.6322C1.95345 10.7613 1.36022 9.65168 1.11979 8.44363C0.879372 7.23559 1.00256 5.98338 1.47379 4.84534C1.94502 3.7073 2.74313 2.73455 3.76718 2.05009C4.79124 1.36563 5.99526 1.0002 7.227 1C8.87877 1 10.4629 1.65616 11.6309 2.82414C12.7988 3.99212 13.455 5.57623 13.455 7.228H13.456Z" stroke="#222222" stroke-width="1.5" stroke-linecap="round" stroke-linejoin="round"/>
<path d="M7.22699 3.49103V7.22803L9.71799 8.47403" stroke="#222222" stroke-width="1.5" stroke-linecap="round" stroke-linejoin="round"/>
</svg>
