<svg width="40" height="40" viewBox="0 0 40 40" fill="none" xmlns="http://www.w3.org/2000/svg">
<circle cx="20" cy="20" r="20" fill="#1DAB87" fill-opacity="0.1"/>
<g clip-path="url(#clip0_315_2209)">
<path d="M20.8399 22.7298C20.8399 23.1274 20.5175 23.4498 20.1199 23.4498C19.7223 23.4498 19.3999 23.1274 19.3999 22.7298C19.3999 22.3321 19.7223 22.0098 20.1199 22.0098C20.5175 22.0098 20.8399 22.3321 20.8399 22.7298Z" fill="white" stroke="white"/>
<path d="M24.94 22.7298C24.94 23.1274 24.6176 23.4498 24.22 23.4498C23.8224 23.4498 23.5 23.1274 23.5 22.7298C23.5 22.3321 23.8224 22.0098 24.22 22.0098C24.6176 22.0098 24.94 22.3321 24.94 22.7298Z" fill="white" stroke="white"/>
<path d="M16.94 22.7298C16.94 23.1274 16.6176 23.4498 16.22 23.4498C15.8224 23.4498 15.5 23.1274 15.5 22.7298C15.5 22.3321 15.8224 22.0098 16.22 22.0098C16.6176 22.0098 16.94 22.3321 16.94 22.7298Z" fill="white" stroke="white"/>
<path fill-rule="evenodd" clip-rule="evenodd" d="M18.945 10.7598H21.055C22.422 10.7598 23.525 10.7598 24.392 10.8768C25.292 10.9968 26.05 11.2568 26.652 11.8578C27.254 12.4598 27.512 13.2178 27.634 14.1178C27.75 14.9848 27.75 16.0878 27.75 17.4548V25.5648C27.75 26.9318 27.75 28.0348 27.634 28.9018C27.512 29.8018 27.254 30.5598 26.652 31.1618C26.05 31.7638 25.292 32.0218 24.392 32.1438C23.525 32.2598 22.422 32.2598 21.055 32.2598H18.945C17.578 32.2598 16.475 32.2598 15.608 32.1438C14.708 32.0218 13.95 31.7638 13.348 31.1618C12.746 30.5598 12.488 29.8018 12.367 28.9018C12.25 28.0348 12.25 26.9318 12.25 25.5648V17.4548C12.25 16.0878 12.25 14.9848 12.367 14.1178C12.487 13.2178 12.747 12.4598 13.348 11.8578C13.95 11.2558 14.708 10.9978 15.608 10.8768C16.475 10.7598 17.578 10.7598 18.945 10.7598ZM15.808 12.3628C15.074 12.4618 14.686 12.6428 14.409 12.9188C14.132 13.1958 13.952 13.5838 13.853 14.3188C13.752 15.0718 13.75 16.0738 13.75 17.5098V25.5098C13.75 26.9448 13.752 27.9458 13.853 28.7018C13.952 29.4358 14.133 29.8238 14.409 30.1008C14.686 30.3778 15.074 30.5578 15.809 30.6568C16.563 30.7578 17.565 30.7598 19 30.7598H21C22.435 30.7598 23.437 30.7578 24.192 30.6568C24.926 30.5578 25.314 30.3768 25.591 30.1008C25.868 29.8238 26.048 29.4358 26.147 28.7008C26.248 27.9458 26.25 26.9448 26.25 25.5098V17.5098C26.25 16.0748 26.248 15.0728 26.147 14.3178C26.048 13.5838 25.867 13.1958 25.591 12.9188C25.314 12.6418 24.926 12.4618 24.191 12.3628C23.437 12.2618 22.435 12.2598 21 12.2598H19C17.565 12.2598 16.563 12.2618 15.808 12.3628ZM10 13.7598C10.1989 13.7598 10.3897 13.8388 10.5303 13.9794C10.671 14.1201 10.75 14.3109 10.75 14.5098V28.5098C10.75 28.7087 10.671 28.8994 10.5303 29.0401C10.3897 29.1807 10.1989 29.2598 10 29.2598C9.80109 29.2598 9.61032 29.1807 9.46967 29.0401C9.32902 28.8994 9.25 28.7087 9.25 28.5098V14.5098C9.25 14.3109 9.32902 14.1201 9.46967 13.9794C9.61032 13.8388 9.80109 13.7598 10 13.7598ZM30 13.7598C30.1989 13.7598 30.3897 13.8388 30.5303 13.9794C30.671 14.1201 30.75 14.3109 30.75 14.5098V28.5098C30.75 28.7087 30.671 28.8994 30.5303 29.0401C30.3897 29.1807 30.1989 29.2598 30 29.2598C29.8011 29.2598 29.6103 29.1807 29.4697 29.0401C29.329 28.8994 29.25 28.7087 29.25 28.5098V14.5098C29.25 14.3109 29.329 14.1201 29.4697 13.9794C29.6103 13.8388 29.8011 13.7598 30 13.7598ZM16.25 18.5098C16.25 18.3109 16.329 18.1201 16.4697 17.9794C16.6103 17.8388 16.8011 17.7598 17 17.7598H23C23.1989 17.7598 23.3897 17.8388 23.5303 17.9794C23.671 18.1201 23.75 18.3109 23.75 18.5098C23.75 18.7087 23.671 18.8994 23.5303 19.0401C23.3897 19.1807 23.1989 19.2598 23 19.2598H17C16.8011 19.2598 16.6103 19.1807 16.4697 19.0401C16.329 18.8994 16.25 18.7087 16.25 18.5098ZM16.25 22.5098C16.25 22.3109 16.329 22.1201 16.4697 21.9794C16.6103 21.8388 16.8011 21.7598 17 21.7598H23C23.1989 21.7598 23.3897 21.8388 23.5303 21.9794C23.671 22.1201 23.75 22.3109 23.75 22.5098C23.75 22.7087 23.671 22.8994 23.5303 23.0401C23.3897 23.1807 23.1989 23.2598 23 23.2598H17C16.8011 23.2598 16.6103 23.1807 16.4697 23.0401C16.329 22.8994 16.25 22.7087 16.25 22.5098ZM16.25 26.5098C16.25 26.3109 16.329 26.1201 16.4697 25.9794C16.6103 25.8388 16.8011 25.7598 17 25.7598H20C20.1989 25.7598 20.3897 25.8388 20.5303 25.9794C20.671 26.1201 20.75 26.3109 20.75 26.5098C20.75 26.7087 20.671 26.8994 20.5303 27.0401C20.3897 27.1807 20.1989 27.2598 20 27.2598H17C16.8011 27.2598 16.6103 27.1807 16.4697 27.0401C16.329 26.8994 16.25 26.7087 16.25 26.5098Z" fill="#03835E"/>
</g>
<defs>
<clipPath id="clip0_315_2209">
<rect width="24" height="24" fill="white" transform="translate(8 8)"/>
</clipPath>
</defs>
</svg>
