<svg width="42" height="49" viewBox="0 0 42 49" fill="none" xmlns="http://www.w3.org/2000/svg">
<path d="M23.7973 49H7.84184C5.89779 48.9958 4.03459 48.2215 2.66004 46.8468C1.28549 45.472 0.511558 43.6087 0.507629 41.6646V7.33421C0.51186 5.39036 1.28593 3.52733 2.66044 2.15281C4.03496 0.778299 5.89799 0.00423104 7.84184 0L23.7973 0C25.7413 0.00392889 27.6046 0.777864 28.9794 2.15241C30.3542 3.52696 31.1284 5.39016 31.1326 7.33421V7.65568C31.1326 8.06179 30.9713 8.45127 30.6841 8.73843C30.397 9.0256 30.0075 9.18693 29.6014 9.18693C29.1953 9.18693 28.8058 9.0256 28.5186 8.73843C28.2315 8.45127 28.0701 8.06179 28.0701 7.65568V7.33421C28.0701 6.20128 27.6201 5.11476 26.819 4.31366C26.0179 3.51255 24.9313 3.0625 23.7984 3.0625H7.84184C6.70891 3.0625 5.62239 3.51255 4.82128 4.31366C4.02018 5.11476 3.57013 6.20128 3.57013 7.33421V41.6646C3.57013 42.7976 4.02018 43.8841 4.82128 44.6852C5.62239 45.4863 6.70891 45.9364 7.84184 45.9364H23.7973C24.9302 45.9364 26.0167 45.4863 26.8178 44.6852C27.6189 43.8841 28.069 42.7976 28.069 41.6646V41.3432C28.069 40.9371 28.2303 40.5476 28.5175 40.2604C28.8046 39.9733 29.1941 39.8119 29.6002 39.8119C30.0063 39.8119 30.3958 39.9733 30.683 40.2604C30.9702 40.5476 31.1315 40.9371 31.1315 41.3432V41.6646C31.1272 43.6085 30.3532 45.4715 28.9787 46.846C27.6042 48.2206 25.7411 48.9946 23.7973 48.9989V49Z" fill="#03835E"/>
<path d="M15.8201 42.875C15.2144 42.875 14.6223 42.6954 14.1186 42.3589C13.615 42.0224 13.2225 41.5441 12.9907 40.9845C12.7589 40.4249 12.6982 39.8091 12.8164 39.215C12.9346 38.621 13.2263 38.0753 13.6546 37.647C14.0829 37.2187 14.6285 36.927 15.2226 36.8088C15.8167 36.6907 16.4324 36.7513 16.992 36.9831C17.5516 37.2149 18.0299 37.6074 18.3664 38.1111C18.703 38.6147 18.8826 39.2068 18.8826 39.8125C18.8826 40.6247 18.5599 41.4037 17.9856 41.978C17.4113 42.5523 16.6323 42.875 15.8201 42.875Z" fill="#03835E"/>
<path d="M20.4136 9.1875H11.2261C10.82 9.1875 10.4305 9.02617 10.1433 8.73901C9.85615 8.45184 9.69482 8.06236 9.69482 7.65625C9.69482 7.25014 9.85615 6.86066 10.1433 6.57349C10.4305 6.28633 10.82 6.125 11.2261 6.125H20.4136C20.8197 6.125 21.2092 6.28633 21.4963 6.57349C21.7835 6.86066 21.9448 7.25014 21.9448 7.65625C21.9448 8.06236 21.7835 8.45184 21.4963 8.73901C21.2092 9.02617 20.8197 9.1875 20.4136 9.1875Z" fill="#03835E"/>
<path d="M29.6008 36.7501C26.6187 36.7495 23.7392 35.661 21.5024 33.6888H17.3508C17.0899 33.688 16.8335 33.6206 16.6059 33.4928C16.3784 33.3651 16.1873 33.1813 16.0508 32.9589C15.9143 32.7366 15.8369 32.483 15.8259 32.2223C15.815 31.9616 15.8709 31.7024 15.9883 31.4694L17.8107 27.8086C17.1185 25.3386 17.2193 22.7135 18.0989 20.3039C18.9785 17.8942 20.5925 15.8215 22.7131 14.3783C24.8338 12.935 27.3541 12.194 29.9185 12.2599C32.4828 12.3258 34.9618 13.1951 37.0056 14.7453C39.0494 16.2955 40.5548 18.4483 41.3096 20.9C42.0643 23.3516 42.0303 25.9784 41.2122 28.4096C40.3941 30.8409 38.8333 32.9539 36.75 34.4505C34.6666 35.9472 32.166 36.752 29.6008 36.7513V36.7501ZM19.831 30.6251H22.1133C22.3105 30.6227 22.5061 30.6609 22.6879 30.7373C22.8697 30.8136 23.034 30.9265 23.1703 31.069C24.6852 32.554 26.6672 33.4691 28.78 33.6588C30.8928 33.8486 33.0062 33.3014 34.7614 32.1101C36.5166 30.9188 37.8056 29.1569 38.4094 27.1233C39.0132 25.0898 38.8947 22.9099 38.074 20.9538C37.2533 18.9976 35.781 17.3858 33.907 16.3918C32.033 15.3977 29.8728 15.0828 27.793 15.5005C25.7132 15.9182 23.842 17.0426 22.4971 18.6831C21.1521 20.3235 20.4163 22.3788 20.4144 24.5001C20.4176 25.5051 20.583 26.5029 20.9041 27.4551C20.9701 27.647 20.9973 27.85 20.9842 28.0525C20.971 28.255 20.9177 28.4529 20.8274 28.6346L19.831 30.6251Z" fill="#03835E"/>
<path d="M27.6904 23.6385C27.6904 23.4868 27.6301 23.3413 27.5228 23.234C27.4156 23.1267 27.2701 23.0665 27.1184 23.0665H26.8289C26.5255 23.0665 26.2345 23.187 26.02 23.4015C25.8055 23.6161 25.6849 23.9071 25.6849 24.2105V25.0719C25.6849 25.3753 25.8055 25.6663 26.02 25.8809C26.2345 26.0954 26.5255 26.2159 26.8289 26.2159H27.1161C27.2678 26.2159 27.4133 26.1557 27.5205 26.0484C27.6278 25.9411 27.6881 25.7956 27.6881 25.6439L27.6904 23.6385ZM30.8478 26.2228C31.1512 26.2228 31.4422 26.1023 31.6568 25.8877C31.8713 25.6732 31.9918 25.3822 31.9918 25.0788V24.2128C31.9918 23.9094 31.8713 23.6184 31.6568 23.4038C31.4422 23.1893 31.1512 23.0688 30.8478 23.0688H30.5607C30.409 23.0688 30.2635 23.129 30.1562 23.2363C30.0489 23.3436 29.9887 23.4891 29.9887 23.6408V25.6485C29.9887 25.8002 30.0489 25.9457 30.1562 26.053C30.2635 26.1602 30.409 26.2205 30.5607 26.2205L30.8478 26.2228ZM28.8378 19.9067C27.6267 19.9293 26.4715 20.4205 25.6149 21.277C24.7584 22.1336 24.2672 23.2888 24.2446 24.4999V24.7871C24.2446 24.8632 24.2749 24.9363 24.3287 24.9901C24.3826 25.044 24.4556 25.0742 24.5318 25.0742H24.8166C24.8928 25.0742 24.9658 25.044 25.0197 24.9901C25.0735 24.9363 25.1038 24.8632 25.1038 24.7871V24.4999C25.1038 23.51 25.497 22.5607 26.1969 21.8608C26.8969 21.1608 27.8462 20.7676 28.8361 20.7676C29.826 20.7676 30.7753 21.1608 31.4752 21.8608C32.1752 22.5607 32.5684 23.51 32.5684 24.4999C32.5684 24.5434 32.5684 27.4743 32.5684 27.4743C32.5684 27.6755 32.4885 27.8684 32.3463 28.0107C32.204 28.1529 32.0111 28.2328 31.8099 28.2328H29.9795C29.9795 28.0043 29.8888 27.7852 29.7272 27.6237C29.5657 27.4621 29.3466 27.3714 29.1181 27.3714H28.5461C28.3176 27.3714 28.0985 27.4621 27.937 27.6237C27.7754 27.7852 27.6847 28.0043 27.6847 28.2328C27.6847 28.4613 27.7754 28.6804 27.937 28.8419C28.0985 29.0035 28.3176 29.0942 28.5461 29.0942H31.8065C32.0197 29.095 32.231 29.0536 32.4282 28.9726C32.6254 28.8915 32.8046 28.7723 32.9556 28.6218C33.1067 28.4713 33.2265 28.2925 33.3083 28.0956C33.39 27.8987 33.4321 27.6875 33.4321 27.4743V24.4999C33.4095 23.2886 32.9182 22.1332 32.0614 21.2766C31.2046 20.4201 30.0491 19.929 28.8378 19.9067V19.9067Z" fill="#03835E"/>
</svg>
