<svg width="71" height="79" viewBox="0 0 71 79" fill="none" xmlns="http://www.w3.org/2000/svg">
<path d="M49.8772 53.2252C48.4532 55.752 45.3412 57.2242 42.7708 58.1893C39.2583 59.5077 35.3465 59.8887 31.6562 59.2805C27.2281 58.5507 24.3995 56.2225 21.6077 53.0118C23.7707 51.5258 25.6331 49.8333 26.8528 47.723C27.6905 46.2772 28.2264 44.6386 28.3515 42.7315C28.3847 42.2128 28.2115 35.6882 28.2746 35.6847C28.2975 35.6847 43.6876 34.6807 43.6876 35.2234C43.6876 40.1267 43.6647 44.1555 45.5615 47.9365C46.328 49.4626 47.4032 50.9463 48.9236 52.4335C49.2357 52.7387 49.5536 52.9992 49.8772 53.2252Z" fill="#D1D3D4"/>
<path d="M45.5614 47.9363C42.6858 50.3437 38.4401 53.3536 35.6425 52.8671C32.511 52.322 28.8678 49.5841 26.8528 47.7217C27.6904 46.277 28.2263 44.6384 28.3514 42.7313C28.3847 42.2126 28.2114 35.688 28.2745 35.6846C28.2986 35.6846 43.6876 34.6805 43.6876 35.2221C43.6876 40.1265 43.6635 44.1542 45.5614 47.9363Z" fill="#CCCCCC"/>
<path d="M70.8418 78.9232H0.776123C0.889724 76.7201 1.12381 71.3418 1.18119 69.1742C1.2225 67.5929 1.27872 65.952 1.97181 64.5418C2.41244 63.6467 3.08602 62.8986 3.77451 62.1883C7.77351 58.0631 12.1122 55.9081 17.8289 52.5953L20.3236 51.4788C20.755 52.0089 21.1808 52.5207 21.6076 53.0118C24.3995 56.2225 27.228 58.5507 31.6562 59.2805C35.3465 59.8887 39.2583 59.5077 42.7708 58.1893C45.3411 57.2242 48.4531 55.752 49.8772 53.2252C50.1686 52.7077 50.3901 52.1454 50.5209 51.5338C51.868 52.0995 55.9221 53.9814 56.5372 54.2706C60.3778 56.0756 64.9219 58.3224 67.7745 61.8188C68.9748 63.2899 69.8744 64.9824 70.2956 66.9561C70.4402 67.6262 70.9909 76.9071 70.8418 78.9232Z" fill="#A7A9AC"/>
<path d="M50.4533 26.2075L49.8325 26.7709L48.1262 20.5332C48.1262 20.5332 47.977 22.2246 47.4308 21.8757C46.8823 21.5269 43.9998 17.5497 43.9998 17.5497C43.9998 17.5497 44.0985 19.1906 43.5523 19.2893C43.0038 19.3903 39.1253 17.451 36.1923 14.2174C34.2025 18.5434 31.7171 19.5406 31.1709 19.4385C30.6224 19.3398 30.472 18.3461 30.472 18.3461C30.472 18.3461 27.6377 20.2348 25.5998 20.5332C24.7048 24.6596 21.9692 27.9414 21.8372 27.7383L21.2015 27.3929C20.7 20.6594 21.5561 14.2231 21.6192 14.0659C24.6508 6.45465 32.8255 5.39552 35.7849 5.11553C38.7443 4.8321 49.6707 7.51148 50.3741 18.0821C50.576 21.1448 50.5933 23.8299 50.451 26.2087L50.4533 26.2075Z" fill="#E6E7E8"/>
<path d="M21.3745 25.5052C22.5427 23.4501 23.8944 20.9279 23.8141 18.4539C26.8733 17.7126 29.742 16.1991 32.0795 14.0923C31.5092 14.6661 30.5235 16.1566 30.9217 16.6042C32.9607 15.9076 35.3303 13.2237 36.0739 10.8816C35.7629 11.8593 38.1417 13.6517 38.7842 14.1394C40.1004 15.14 41.6197 15.8755 43.225 16.2668C43.1677 16.253 42.5939 14.2943 42.5388 14.1485C44.314 15.8514 46.0892 17.5554 47.8643 19.2595C48.2269 18.8406 48.2671 17.07 47.9779 15.8078C48.9843 18.5388 49.3549 21.014 49.9688 23.8551C50.2041 24.9407 50.3314 25.7301 51.2815 26.4508C51.6109 26.6998 53.899 27.5535 53.899 27.9104C54.0286 26.5139 54.1652 25.1082 54.2019 23.7048C54.2352 22.3829 54.6173 21.1436 54.7848 19.8194C55.1348 17.0482 54.903 14.2025 54.0872 11.53C53.8508 12.5512 53.6144 13.5725 53.3769 14.5938C52.5839 12.168 51.7841 9.72611 50.5747 7.47933C49.3641 5.23255 47.706 3.16707 45.5189 1.8509C45.7013 2.60021 45.8838 3.35067 46.0662 4.10112C45.9916 3.72704 43.9204 2.81479 43.5452 2.59447C42.7431 2.12171 41.9479 1.70976 41.0769 1.36895C39.148 0.612759 37.1066 0.144584 35.04 0C35.3349 0.382114 35.6298 0.76308 35.9247 1.14519C34.2815 0.826192 32.2711 0.358016 30.6267 0.0390146C30.5212 0.655216 30.823 1.32076 31.3554 1.64665C29.3416 1.57321 27.0477 1.53649 25.0339 1.46305C25.0236 1.9863 25.3288 2.50382 25.7912 2.74824C23.5869 2.97773 21.1646 3.05347 18.9568 2.8538C18.9694 3.02019 18.982 3.18543 18.9947 3.35181C19.6074 3.83032 20.1559 4.39029 20.6218 5.01223C19.8495 5.07534 18.8776 5.16944 18.1398 4.92961C18.1042 5.94284 18.4978 6.82756 19.3343 7.40015C18.4955 7.45638 17.4444 6.89641 16.8397 6.31234C16.469 8.05537 16.9762 9.9143 17.8403 11.4726C17.2333 11.2075 16.6159 10.8575 16.251 10.3044C16.2533 10.394 16.2556 10.4835 16.2579 10.5718C16.29 11.857 16.6239 13.3602 17.5305 14.2725C16.9498 14.2885 16.2866 14.2484 15.8574 13.8571C16.033 16.5365 16.523 19.1917 17.4696 21.7036C16.9774 21.6279 16.5677 21.3444 16.0823 21.2377C17.6923 24.6285 20.0699 28.0825 22.2684 31.1256C21.8335 29.1198 21.5811 27.5455 21.3734 25.5052H21.3745Z" fill="#E6E7E8"/>
<path d="M49.5913 26.585C49.4926 26.3337 51.5122 22.4506 54.008 22.9211C56.5037 23.3904 55.9552 30.8674 52.0274 33.1636C48.1707 35.4184 47.1494 33.727 47.1494 33.727L49.5924 26.585H49.5913Z" fill="#E6E7E8"/>
<path d="M49.8326 26.772C49.8326 26.772 53.0019 23.8459 53.7329 24.3129C54.4638 24.78 54.784 27.7485 54.4202 27.8013C54.0565 27.8541 53.1993 25.4214 53.1993 25.4214L49.5767 28.4393L49.8326 26.772Z" fill="#D1D3D4"/>
<path d="M49.8567 27.2414C49.8567 27.2414 52.0415 26.4015 52.6737 28.9007C53.306 31.3999 51.1074 32.7333 49.3529 32.0379C48.9375 31.8727 49.8567 27.2426 49.8567 27.2426V27.2414Z" fill="#D1D3D4"/>
<path d="M21.6926 26.773C21.7913 26.5217 19.7717 22.6386 17.2759 23.1091C14.7801 23.5784 15.3286 31.0554 19.2565 33.3516C23.1132 35.6064 24.1345 33.915 24.1345 33.915L21.6915 26.773H21.6926Z" fill="#E6E7E8"/>
<path d="M21.8612 27.2698C21.8612 27.2698 18.6918 24.3437 17.9608 24.8108C17.2299 25.2778 16.9097 28.2463 17.2735 28.2991C17.6373 28.3519 18.4944 25.9192 18.4944 25.9192L22.1159 28.9371L21.86 27.2687L21.8612 27.2698Z" fill="#D1D3D4"/>
<path d="M21.837 27.738C21.837 27.738 19.6522 26.8981 19.0199 29.3973C18.3877 31.8965 20.5862 33.2299 22.3407 32.5345C22.7561 32.3693 21.837 27.7392 21.837 27.7392V27.738Z" fill="#D1D3D4"/>
<path d="M50.4532 26.2075C50.1078 32.0345 48.8123 36.0174 47.0073 39.2097C45.8081 41.6952 41.2193 45.755 37.0539 46.0602C33.608 46.3138 26.8356 45.2845 23.2439 36.9698C22.0471 34.1986 21.4561 30.7585 21.2037 27.3929C20.7022 20.6594 21.5583 14.2231 21.6214 14.0659C24.653 6.45465 32.8277 5.39552 35.7871 5.11553C38.7465 4.8321 49.6729 7.51148 50.3763 18.0821C50.5782 21.1459 50.5955 23.8311 50.4532 26.2087V26.2075Z" fill="#E6E7E8"/>
</svg>
