<svg width="20" height="20" viewBox="0 0 20 20" fill="none" xmlns="http://www.w3.org/2000/svg">
<path d="M12.3269 14.7054C11.9121 14.6758 11.5233 14.648 11.1111 14.6184C11.082 15.0002 11.0524 15.3655 11.0268 15.7316C10.9776 16.4256 10.9285 17.1191 10.8846 17.8131C10.8598 18.2079 10.7481 18.337 10.3589 18.351C10.048 18.3623 9.73491 18.3627 9.42444 18.3427C9.11354 18.3227 9.00005 18.1983 8.97701 17.8909C8.9157 17.0747 8.86048 16.2577 8.8009 15.4411C8.70437 14.1114 8.60567 12.7822 8.50914 11.4525C8.47174 10.9394 8.44478 10.4254 8.39608 9.91362C8.38652 9.81448 8.3239 9.68969 8.2452 9.63229C6.04672 8.03692 3.84521 6.44459 1.6363 4.86356C1.34757 4.65702 1.20451 4.42178 1.22234 4.06523C1.2406 3.6965 1.22452 3.32602 1.22452 2.95642C1.22452 2.33201 1.4041 2.15026 2.02199 2.15069C3.44256 2.15069 4.86313 2.15287 6.28414 2.15243C10.1258 2.15243 13.9671 2.15069 17.8087 2.15156C17.924 2.15156 18.0414 2.15548 18.154 2.17765C18.454 2.23635 18.6162 2.40985 18.6232 2.7151C18.6349 3.22949 18.6292 3.74433 18.6236 4.25872C18.621 4.49527 18.4858 4.65963 18.3044 4.79878C17.547 5.38231 16.7921 5.97019 16.0368 6.55634C15.969 6.60895 15.9025 6.66374 15.8238 6.72722C16.0751 7.05073 16.3173 7.36294 16.573 7.69167C16.7686 7.54209 16.9521 7.40338 17.1339 7.26249C17.7522 6.78288 18.3697 6.3024 18.988 5.82235C19.5572 5.38057 19.8485 4.80052 19.8542 4.07958C19.8572 3.68084 19.862 3.28211 19.8563 2.88381C19.8407 1.81109 18.9528 0.927965 17.8766 0.92753C12.8683 0.924921 7.85951 0.926661 2.8512 0.929704C2.43202 0.929704 2.00459 0.90405 1.59499 0.973187C0.691421 1.12538 0.00309323 1.97067 0.00135393 2.88163C0.000484283 3.42429 -0.0108212 3.97087 0.050924 4.50788C0.116148 5.07098 0.434874 5.50928 0.900137 5.84366C2.9412 7.31119 4.97706 8.78568 7.01899 10.2519C7.15683 10.3511 7.21684 10.4563 7.22858 10.6237C7.40077 13.0809 7.57731 15.5381 7.75689 17.9953C7.81646 18.8084 8.64132 19.5519 9.50923 19.5798C9.79144 19.5889 10.0749 19.5893 10.3571 19.5789C11.2855 19.545 12.0517 18.7771 12.1082 17.8548C12.1638 16.9439 12.2395 16.0338 12.3052 15.1233C12.3143 14.9941 12.3186 14.8645 12.3265 14.7058L12.3269 14.7054Z" fill="white"/>
<path d="M15.3712 12.8549C15.5007 12.8549 15.6073 12.8549 15.7138 12.8549C16.5108 12.8545 17.3074 12.8549 18.1045 12.8527C18.3741 12.8523 18.5562 12.7127 18.661 12.4736C18.7597 12.2488 18.7171 11.9635 18.5189 11.8205C18.3762 11.7178 18.1814 11.6396 18.0079 11.6352C17.2113 11.6165 16.4143 11.6274 15.6173 11.6278C15.5455 11.6278 15.4742 11.6278 15.3707 11.6278C15.3707 11.5291 15.3707 11.4452 15.3707 11.3613C15.3716 10.5573 15.3751 9.75286 15.372 8.94887C15.3707 8.57361 15.1281 8.31881 14.7789 8.3075C14.415 8.29576 14.1506 8.56231 14.1489 8.95713C14.1449 9.76112 14.1467 10.5655 14.1463 11.3695C14.1463 11.4474 14.1463 11.5252 14.1463 11.6291C13.9623 11.6291 13.798 11.6291 13.6336 11.6291C12.9092 11.6291 12.1848 11.6265 11.4603 11.6313C11.1207 11.6335 10.8781 11.8387 10.8311 12.1448C10.7851 12.4427 10.9403 12.7214 11.2238 12.8162C11.3303 12.8519 11.4512 12.8553 11.5656 12.8558C12.3478 12.8579 13.1305 12.8549 13.9128 12.8549C13.9832 12.8549 14.0541 12.8623 14.148 12.8671C14.148 13.241 14.148 13.6015 14.148 13.9615C14.148 14.4977 14.1428 15.0338 14.1497 15.5695C14.1536 15.8678 14.3254 16.0809 14.6019 16.163C14.8494 16.2365 15.1303 16.1478 15.2633 15.9178C15.3316 15.7995 15.3664 15.646 15.3681 15.5082C15.3772 14.7116 15.372 13.9146 15.3712 13.1175C15.3712 13.0397 15.3712 12.9623 15.3712 12.854V12.8549Z" fill="white"/>
</svg>
