<svg width="28" height="23" viewBox="0 0 28 23" fill="none" xmlns="http://www.w3.org/2000/svg">
<path d="M8.04206 10.1745C9.15233 10.1745 10.0524 9.2744 10.0524 8.16413C10.0524 7.05386 9.15233 6.15381 8.04206 6.15381C6.93179 6.15381 6.03174 7.05386 6.03174 8.16413C6.03174 9.2744 6.93179 10.1745 8.04206 10.1745Z" fill="#1DAB87"/>
<path d="M12.0627 14.1953L10.0524 11.5149L6.03174 16.8758H22.1143L16.0834 8.83447L12.0627 14.1953Z" fill="#1DAB87"/>
<path d="M24.7948 0.792969H3.35133C1.87307 0.792969 0.670898 1.99514 0.670898 3.4734V19.556C0.670898 21.0342 1.87307 22.2364 3.35133 22.2364H24.7948C26.273 22.2364 27.4752 21.0342 27.4752 19.556V3.4734C27.4752 1.99514 26.273 0.792969 24.7948 0.792969ZM3.35133 19.556V3.4734H24.7948L24.7975 19.556H3.35133Z" fill="#1DAB87"/>
</svg>
