<svg width="49" height="48" viewBox="0 0 49 48" fill="none" xmlns="http://www.w3.org/2000/svg">
<path d="M19.4946 38.9992C15.4284 38.9981 11.4643 37.726 8.15685 35.3607C4.84939 32.9955 2.36408 29.6555 1.04862 25.808C-0.266838 21.9605 -0.346625 17.798 0.820423 13.9029C1.98747 10.0078 4.34297 6.57502 7.55735 4.08476C10.7717 1.5945 14.6842 0.171387 18.7473 0.0145216C22.8105 -0.142344 26.821 0.974889 30.2178 3.20991C33.6146 5.44493 36.2278 8.68592 37.6916 12.4794C39.1555 16.2729 39.3969 20.4292 38.382 24.3666C38.2825 24.752 38.034 25.0821 37.6912 25.2843C37.3484 25.4864 36.9393 25.5441 36.5539 25.4447C36.1685 25.3452 35.8385 25.0967 35.6363 24.7539C35.4341 24.411 35.3764 24.0019 35.4759 23.6166C36.4514 19.8631 36.076 15.8862 34.4155 12.3815C32.7551 8.87682 29.9152 6.06757 26.3927 4.4452C22.8702 2.82284 18.8894 2.49066 15.1468 3.50679C11.4041 4.52291 8.13791 6.82264 5.91954 10.0036C3.70117 13.1846 2.6719 17.0444 3.01179 20.9076C3.35168 24.7708 5.03909 28.3915 7.77883 31.1363C10.5186 33.8811 14.1362 35.5752 17.9987 35.9222C21.8613 36.2692 25.7229 35.247 28.908 33.0345C30.5245 31.9249 31.9231 30.5275 33.034 28.9119C33.1454 28.7492 33.2878 28.6101 33.4531 28.5024C33.6183 28.3947 33.8031 28.3207 33.997 28.2845C34.1908 28.2482 34.3899 28.2505 34.5829 28.2912C34.7759 28.332 34.9589 28.4103 35.1216 28.5217C35.2843 28.6332 35.4234 28.7756 35.5311 28.9408C35.6388 29.1061 35.7128 29.2909 35.7491 29.4847C35.7853 29.6786 35.783 29.8777 35.7423 30.0707C35.7015 30.2636 35.6232 30.4467 35.5118 30.6094C34.195 32.523 32.539 34.1794 30.6257 35.4966C27.3656 37.7847 23.4775 39.0082 19.4946 38.9992Z" fill="#03835E"/>
<path d="M43.3207 48.0001C42.0792 47.9968 40.8892 47.5041 40.0087 46.6289L28.7095 35.3296C28.5701 35.1903 28.4596 35.0248 28.3841 34.8427C28.3087 34.6607 28.2699 34.4655 28.2699 34.2684C28.2699 34.0713 28.3087 33.8762 28.3841 33.6941C28.4596 33.512 28.5701 33.3466 28.7095 33.2072C28.8488 33.0679 29.0143 32.9573 29.1963 32.8819C29.3784 32.8065 29.5736 32.7677 29.7707 32.7677C29.9677 32.7677 30.1629 32.8065 30.345 32.8819C30.5271 32.9573 30.6925 33.0679 30.8319 33.2072L42.13 44.5065C42.2863 44.6628 42.4718 44.7867 42.676 44.8713C42.8802 44.9559 43.0991 44.9995 43.3201 44.9995C43.5412 44.9995 43.76 44.9559 43.9642 44.8713C44.1684 44.7867 44.354 44.6628 44.5103 44.5065C44.6666 44.3502 44.7905 44.1646 44.8751 43.9604C44.9597 43.7562 45.0032 43.5374 45.0032 43.3163C45.0032 43.0953 44.9597 42.8765 44.8751 42.6723C44.7905 42.468 44.6666 42.2825 44.5103 42.1262L33.2121 30.8281C33.0728 30.6887 32.9622 30.5233 32.8868 30.3412C32.8114 30.1591 32.7726 29.964 32.7726 29.7669C32.7726 29.5698 32.8114 29.3746 32.8868 29.1926C32.9622 29.0105 33.0728 28.845 33.2121 28.7057C33.3515 28.5663 33.5169 28.4558 33.699 28.3804C33.8811 28.3049 34.0762 28.2661 34.2733 28.2661C34.4704 28.2661 34.6656 28.3049 34.8476 28.3804C35.0297 28.4558 35.1952 28.5663 35.3345 28.7057L46.6327 40.0049C47.2878 40.6599 47.734 41.4944 47.9148 42.403C48.0955 43.3116 48.0028 44.2534 47.6483 45.1092C47.2937 45.9651 46.6933 46.6965 45.923 47.2111C45.1527 47.7257 44.2471 48.0003 43.3207 48.0001Z" fill="#03835E"/>
<path d="M28.4953 22.4876H10.4869C9.69085 22.4876 8.92744 22.1714 8.36456 21.6085C7.80169 21.0456 7.48547 20.2822 7.48547 19.4862V14.9835C7.48547 14.5857 7.64352 14.2041 7.92485 13.9228C8.20619 13.6414 8.58775 13.4834 8.98561 13.4834H29.9954C30.3933 13.4834 30.7749 13.6414 31.0562 13.9228C31.3375 14.2041 31.4956 14.5857 31.4956 14.9835V19.4851C31.4957 19.8792 31.4182 20.2696 31.2675 20.6338C31.1168 20.998 30.8959 21.3289 30.6173 21.6077C30.3387 21.8865 30.0079 22.1077 29.6438 22.2587C29.2797 22.4097 28.8894 22.4875 28.4953 22.4876ZM10.4869 16.4848V19.4862H28.4953V16.4848H10.4869Z" fill="#03835E"/>
<path d="M25.4926 31.4919H13.487C12.8958 31.4919 12.3103 31.3755 11.7641 31.1492C11.2179 30.9229 10.7216 30.5912 10.3035 30.1731C9.88553 29.7549 9.55397 29.2586 9.32781 28.7123C9.10165 28.166 8.98533 27.5805 8.98547 26.9893V20.9865C8.98547 20.5886 9.14352 20.207 9.42485 19.9257C9.70619 19.6444 10.0878 19.4863 10.4856 19.4863H28.494C28.8919 19.4863 29.2735 19.6444 29.5548 19.9257C29.8361 20.207 29.9942 20.5886 29.9942 20.9865V26.9893C29.9943 27.5805 29.878 28.166 29.6518 28.7123C29.4257 29.2586 29.0941 29.7549 28.6761 30.1731C28.2581 30.5912 27.7618 30.9229 27.2155 31.1492C26.6693 31.3755 26.0839 31.4919 25.4926 31.4919ZM11.9869 22.4877V26.9893C11.9869 27.1863 12.0257 27.3813 12.1011 27.5634C12.1765 27.7454 12.287 27.9107 12.4263 28.05C12.5656 28.1893 12.7309 28.2998 12.9129 28.3752C13.0949 28.4506 13.29 28.4894 13.487 28.4894H25.4926C25.8905 28.4894 26.2721 28.3314 26.5534 28.05C26.8347 27.7687 26.9928 27.3871 26.9928 26.9893V22.4877H11.9869Z" fill="#03835E"/>
<path d="M25.4928 16.4847H13.4872C13.2901 16.4847 13.0949 16.4458 12.9129 16.3704C12.7308 16.2949 12.5654 16.1843 12.426 16.0449C12.2867 15.9055 12.1763 15.74 12.1009 15.5578C12.0256 15.3757 11.9869 15.1805 11.9871 14.9834V11.982C11.9871 11.3909 12.1035 10.8055 12.3297 10.2593C12.5559 9.71319 12.8875 9.21695 13.3055 8.79894C14.1497 7.95474 15.2947 7.48047 16.4886 7.48047H22.4914C23.0826 7.48047 23.6679 7.5969 24.2141 7.82313C24.7602 8.04935 25.2565 8.38093 25.6745 8.79894C26.0925 9.21695 26.4241 9.71319 26.6503 10.2593C26.8765 10.8055 26.9929 11.3909 26.9929 11.982V14.9834C26.9931 15.1805 26.9544 15.3757 26.8791 15.5578C26.8038 15.74 26.6933 15.9055 26.554 16.0449C26.4146 16.1843 26.2492 16.2949 26.0671 16.3704C25.8851 16.4458 25.6899 16.4847 25.4928 16.4847ZM14.9885 13.4833H23.9927V11.982C23.9927 11.785 23.9539 11.5899 23.8785 11.4079C23.8031 11.2259 23.6926 11.0606 23.5533 10.9213C23.414 10.782 23.2486 10.6715 23.0666 10.5961C22.8846 10.5207 22.6895 10.4819 22.4925 10.4819H16.4886C16.0907 10.4819 15.7092 10.6399 15.4278 10.9213C15.1465 11.2026 14.9885 11.5841 14.9885 11.982V13.4833Z" fill="#03835E"/>
</svg>
