<svg width="51" height="43" viewBox="0 0 51 43" fill="none" xmlns="http://www.w3.org/2000/svg">
<path d="M42.9499 40.999H7.85066C7.07857 41.0132 6.31154 40.8716 5.59541 40.5826C4.87929 40.2937 4.22876 39.8633 3.68272 39.3173C3.13667 38.7712 2.70631 38.1207 2.41736 37.4046C2.12841 36.6885 1.98679 35.9214 2.00097 35.1493V2H37.1002V15.6536" stroke="#03835E" stroke-width="3.5" stroke-miterlimit="10"/>
<path d="M42.9497 40.9992C42.1776 41.0133 41.4105 40.8717 40.6944 40.5828C39.9783 40.2938 39.3278 39.8635 38.7817 39.3174C38.2357 38.7714 37.8053 38.1208 37.5164 37.4047C37.2274 36.6886 37.0858 35.9216 37.1 35.1495V15.6494H48.7994V35.1495C48.8135 35.9216 48.6719 36.6886 48.383 37.4047C48.094 38.1208 47.6637 38.7714 47.1176 39.3174C46.5716 39.8635 45.921 40.2938 45.2049 40.5828C44.4888 40.8717 43.7218 41.0133 42.9497 40.9992Z" stroke="#03835E" stroke-width="3.5" stroke-miterlimit="10"/>
<path d="M29.1991 10.1025H10.2036V15.1682H29.1991V10.1025Z" stroke="#03835E" stroke-width="3.5" stroke-miterlimit="10" stroke-linecap="round"/>
<path d="M7.67114 21.5H17.8025" stroke="#03835E" stroke-width="3.5" stroke-miterlimit="10" stroke-linecap="round"/>
<path d="M21.6011 21.5H31.7324" stroke="#03835E" stroke-width="3.5" stroke-miterlimit="10" stroke-linecap="round"/>
<path d="M7.67114 27.832H17.8025" stroke="#03835E" stroke-width="3.5" stroke-miterlimit="10" stroke-linecap="round"/>
<path d="M21.6011 27.832H31.7324" stroke="#03835E" stroke-width="3.5" stroke-miterlimit="10" stroke-linecap="round"/>
<path d="M7.67114 32.8965H17.8025" stroke="#03835E" stroke-width="3.5" stroke-miterlimit="10" stroke-linecap="round"/>
<path d="M21.6011 32.8965H31.7324" stroke="#03835E" stroke-width="3.5" stroke-miterlimit="10" stroke-linecap="round"/>
</svg>
