<svg width="50" height="50" viewBox="0 0 50 50" fill="none" xmlns="http://www.w3.org/2000/svg">
<circle cx="25" cy="25" r="25" fill="#1DAB87"/>
<path d="M28.3408 34.9999C28.1273 35.0006 27.9164 34.9559 27.7235 34.869C27.5307 34.7821 27.3608 34.6553 27.2263 34.4978L20.325 26.3557C20.1149 26.1129 20 25.8083 20 25.494C20 25.1797 20.1149 24.8751 20.325 24.6323L27.4692 16.4902C27.7117 16.2131 28.0602 16.0388 28.438 16.0057C28.8159 15.9727 29.192 16.0835 29.4838 16.3138C29.7756 16.5442 29.9591 16.8751 29.994 17.234C30.0288 17.5928 29.9121 17.9501 29.6696 18.2272L23.2827 25.5008L29.4553 32.7744C29.63 32.9736 29.741 33.2161 29.7751 33.4734C29.8092 33.7306 29.765 33.9917 29.6478 34.2258C29.5305 34.46 29.3451 34.6573 29.1135 34.7945C28.8819 34.9316 28.6137 35.0029 28.3408 34.9999Z" fill="white"/>
</svg>
