<svg width="89" height="89" viewBox="0 0 89 89" fill="none" xmlns="http://www.w3.org/2000/svg">
<circle cx="44.1594" cy="44.4883" r="44" fill="white"/>
<circle cx="44.1594" cy="44.4883" r="36" fill="#F3F4F6"/>
<path d="M67.854 43.9888C67.854 48.6078 66.4843 53.123 63.9181 56.9636C61.352 60.8041 57.7046 63.7974 53.4372 65.565C49.1698 67.3327 44.4741 67.7951 39.9439 66.894C35.4136 65.9929 31.2524 63.7687 27.9862 60.5025C24.7201 57.2364 22.4959 53.0751 21.5947 48.5449C20.6936 44.0147 21.1561 39.319 22.9237 35.0516C24.6913 30.7842 27.6847 27.1368 31.5252 24.5706C35.3658 22.0045 39.881 20.6348 44.5 20.6348C50.6939 20.6348 56.6341 23.0953 61.0138 27.475C65.3935 31.8547 67.854 37.7949 67.854 43.9888V43.9888Z" stroke="#1DAB87" stroke-width="3" stroke-linecap="round" stroke-linejoin="round"/>
<path d="M44.5 30.1123L44.5 45.6709" stroke="#1DAB87" stroke-width="3" stroke-linecap="round" stroke-linejoin="round"/>
</svg>
