<svg width="40" height="40" viewBox="0 0 40 40" fill="none" xmlns="http://www.w3.org/2000/svg">
<circle cx="20" cy="20" r="20" fill="#1DAB87" fill-opacity="0.1"/>
<g clip-path="url(#clip0_315_2227)">
<path d="M23.325 24.275C23.1417 24.0583 23.05 23.8127 23.05 23.538C23.05 23.2633 23.1417 23.034 23.325 22.85L25.175 21H18C17.7167 21 17.479 20.904 17.287 20.712C17.095 20.52 16.9993 20.2827 17 20C17 19.7167 17.096 19.479 17.288 19.287C17.48 19.095 17.7173 18.9993 18 19H25.175L23.325 17.15C23.125 16.95 23.025 16.7123 23.025 16.437C23.025 16.1617 23.125 15.9243 23.325 15.725C23.5083 15.525 23.7377 15.425 24.013 15.425C24.2883 15.425 24.5173 15.5167 24.7 15.7L28.3 19.3C28.4 19.4 28.471 19.5083 28.513 19.625C28.555 19.7417 28.5757 19.8667 28.575 20C28.575 20.1333 28.5543 20.2583 28.513 20.375C28.4717 20.4917 28.4007 20.6 28.3 20.7L24.7 24.3C24.4833 24.5167 24.2457 24.6127 23.987 24.588C23.7283 24.5633 23.5077 24.459 23.325 24.275ZM13 29C12.45 29 11.979 28.804 11.587 28.412C11.195 28.02 10.9993 27.5493 11 27V13C11 12.45 11.196 11.979 11.588 11.587C11.98 11.195 12.4507 10.9993 13 11H19C19.2833 11 19.521 11.096 19.713 11.288C19.905 11.48 20.0007 11.7173 20 12C20 12.2833 19.904 12.521 19.712 12.713C19.52 12.905 19.2827 13.0007 19 13H13V27H19C19.2833 27 19.521 27.096 19.713 27.288C19.905 27.48 20.0007 27.7173 20 28C20 28.2833 19.904 28.521 19.712 28.713C19.52 28.905 19.2827 29.0007 19 29H13Z" fill="#03835E"/>
</g>
<defs>
<clipPath id="clip0_315_2227">
<rect width="24" height="24" fill="white" transform="translate(8 8)"/>
</clipPath>
</defs>
</svg>
