<svg width="47" height="43" viewBox="0 0 47 43" fill="none" xmlns="http://www.w3.org/2000/svg">
<path d="M27.5092 9.74525C27.4122 9.54555 27.2809 9.34585 27.1212 9.15186C27.1098 9.13474 27.1098 9.12333 27.1269 9.11192C27.5776 8.74104 27.8858 8.5014 28.0398 8.38158C31.817 5.56294 35.6227 2.77854 39.4684 0.028373C39.4969 0.00555001 39.5255 0.0112551 39.5483 0.0454895L40.9177 2.1452C40.9234 2.15662 40.9234 2.16803 40.912 2.17944C38.721 3.66864 36.5756 5.13501 34.4702 6.57286C33.814 7.01791 33.1636 7.45725 32.5188 7.89089C32.2164 8.09059 31.8798 8.24464 31.5831 8.45576C30.5218 9.1975 29.4548 9.92784 28.3822 10.6525C28.365 10.6639 28.3422 10.6696 28.3251 10.6582C28.114 10.5555 27.8972 10.487 27.6746 10.4585C27.6518 10.4528 27.6461 10.4414 27.6461 10.4242C27.6518 10.1732 27.6062 9.95066 27.5092 9.74525Z" fill="white"/>
<path d="M28.3764 7.86809C27.9485 8.18761 27.4863 8.54137 26.9899 8.94077C26.9671 8.95789 26.95 8.95789 26.9272 8.93507C26.8872 8.89513 26.8473 8.86089 26.8074 8.82095C26.7047 8.72966 26.7446 8.55849 26.8416 8.48431C27.6404 7.89091 28.4278 7.26328 29.2038 6.59571C29.9626 5.94526 30.7044 5.38039 31.4918 4.82123C31.6287 4.72423 31.7657 4.62152 31.9026 4.51311C32.7299 3.86837 33.5801 3.23503 34.4416 2.6074C35.851 1.58607 37.3573 0.730207 38.9492 0.0968699C39.0348 0.0626354 39.0405 0.0740469 38.9663 0.125399C35.5885 2.54463 32.0566 5.12363 28.3764 7.86809Z" fill="white"/>
<path d="M23.0701 2.47613C24.2227 2.23079 25.2269 2.51607 25.9629 3.46323C26.7104 4.4275 26.8359 5.59717 26.9272 6.77826C26.9557 7.12631 26.7731 7.45154 26.6077 7.74824C26.5849 7.78818 26.5335 7.8053 26.4879 7.78247C26.4707 7.77106 26.4593 7.75965 26.4536 7.74253C26.4023 7.63412 26.3794 7.52001 26.3851 7.39448C26.4023 7.06926 26.408 6.75544 26.4137 6.45304C26.4137 6.31039 26.4707 6.15063 26.5734 5.97375C26.5849 5.95664 26.5848 5.93952 26.5848 5.9167C26.4536 4.57014 25.4038 3.70287 24.0572 3.71999C23.1785 3.7314 22.4425 3.75993 21.8548 3.79987C21.2557 3.83981 20.765 4.06804 20.3827 4.48455C20.3485 4.52449 20.3371 4.51879 20.3485 4.46744C20.6452 3.28064 21.9746 2.71007 23.0701 2.47613Z" fill="white"/>
<path d="M25.187 4.69567C24.0972 4.37045 23.0359 4.36474 22.0031 4.67856C21.5467 4.81549 21.1131 5.16925 20.9875 5.63712C20.9818 5.65994 20.9647 5.68277 20.9419 5.69418L20.6794 5.86535C20.6566 5.88247 20.6395 5.87676 20.6224 5.85394C20.4284 5.59148 20.2743 5.16354 20.4911 4.86684C21.0275 4.1251 21.7464 4.1251 22.5737 4.09086C23.0188 4.07375 23.4239 4.05663 23.789 4.05092C24.2227 4.03951 24.5536 4.06804 24.7704 4.1308C25.5179 4.34762 25.9972 4.84973 26.2197 5.63141C26.2311 5.66565 26.2197 5.67135 26.1855 5.65994L26.0599 5.60859C26.0257 5.59147 26.0086 5.56865 26.0029 5.53442C25.9401 5.09508 25.5749 4.80979 25.187 4.69567Z" fill="white"/>
<path d="M23.3269 5.20918C23.3326 5.18636 23.3269 5.16354 23.3212 5.14642C23.304 5.10648 23.2698 5.10078 23.2299 5.11789C23.207 5.1293 23.1956 5.14072 23.1899 5.16354L23.1728 5.24913C23.1728 5.26624 23.1614 5.27195 23.1443 5.27195C22.5851 5.30048 22.0716 5.329 21.5067 5.46024C21.4097 5.48306 21.3926 5.46024 21.4611 5.38036C21.6437 5.18066 21.8605 5.04942 22.1115 4.97525C23.013 4.70708 23.9545 4.70137 24.9302 4.95243C25.2041 5.0209 25.4722 5.14072 25.6263 5.38036C25.6605 5.43171 25.6491 5.44883 25.5863 5.43171C24.8674 5.23201 24.1086 5.23201 23.3611 5.25483C23.3326 5.25483 23.3155 5.24342 23.3269 5.20918Z" fill="white"/>
<path d="M23.7149 6.08787C23.692 6.24192 23.692 6.39598 23.7034 6.55574C23.7034 6.57856 23.6977 6.58997 23.6749 6.58997C23.4581 6.60139 23.2356 6.62421 23.0188 6.66415C22.9959 6.66985 22.9845 6.65844 22.9845 6.63562C22.9959 6.4188 23.1329 6.17916 23.2185 5.97375C23.2755 5.83682 23.3155 5.68276 23.3383 5.51159C23.344 5.48306 23.3611 5.46594 23.3896 5.46594H23.7719C23.8004 5.46594 23.8119 5.47735 23.8062 5.50588C23.7548 5.7227 23.7377 5.95093 23.7434 6.19057C23.7434 6.20198 23.7434 6.20769 23.7377 6.2134H23.732C23.732 6.2134 23.732 6.21339 23.732 6.20769C23.7434 6.13351 23.7377 6.09357 23.732 6.08787C23.7263 6.08787 23.7263 6.08787 23.7149 6.08787C23.7206 6.08787 23.7206 6.08787 23.7149 6.08787Z" fill="white"/>
<path d="M23.9431 6.05364C23.9602 5.83682 23.9887 5.66565 24.023 5.52871C24.0173 5.5173 24.0173 5.50018 24.0173 5.48877C24.023 5.47165 24.0344 5.46024 24.0572 5.46024C24.6107 5.44312 25.1413 5.51159 25.6491 5.66565C25.6891 5.67706 25.7062 5.70559 25.6948 5.74553L25.4665 6.85244C25.4608 6.87527 25.4494 6.88668 25.4209 6.87527C24.9587 6.66986 24.468 6.56716 23.9545 6.56716C23.9317 6.56716 23.9203 6.55574 23.9203 6.53292C23.9203 6.38457 23.9317 6.22481 23.9431 6.05364Z" fill="white"/>
<path d="M23.053 5.55153C22.9275 5.78547 22.819 6.0137 22.7221 6.23051C22.665 6.36175 22.6479 6.5158 22.665 6.69839C22.665 6.72121 22.6593 6.73262 22.6365 6.73833L22.3169 6.82391C22.2884 6.82962 22.2713 6.82391 22.2599 6.79538C22.0944 6.39598 21.889 6.02511 21.6437 5.67706C21.6323 5.65994 21.6323 5.64282 21.6551 5.63712C22.0659 5.523 22.5623 5.50018 23.0073 5.48306C23.0644 5.48877 23.0758 5.51159 23.053 5.55153Z" fill="white"/>
<path d="M20.1659 5.71129C20.2458 5.82541 20.2971 5.95664 20.3941 6.06505C20.4055 6.08216 20.4055 6.09928 20.3941 6.1164L20.2058 6.36174C20.1887 6.38457 20.1773 6.38457 20.1773 6.35033L20.1431 5.7227C20.1374 5.68847 20.1488 5.68276 20.1659 5.71129Z" fill="white"/>
<path d="M21.4497 7.13203C21.4383 7.13773 21.4268 7.13203 21.4268 7.12062C21.3584 6.77827 21.307 6.42451 21.2728 6.07076C21.2671 5.98517 21.2671 5.89959 21.2785 5.80829C21.2785 5.79118 21.2899 5.77406 21.3013 5.76265C21.3298 5.73983 21.3641 5.72841 21.4097 5.73412C21.4268 5.73412 21.4383 5.74553 21.4497 5.75694C21.6893 6.10499 21.8947 6.47587 22.0602 6.86956C22.0659 6.88668 22.0602 6.89809 22.0431 6.9038L21.4497 7.13203Z" fill="white"/>
<path d="M26.0314 5.8197L26.2083 5.91099C26.2197 5.9167 26.2311 5.93382 26.2197 5.95093L26.1912 6.0137C26.1854 6.02511 26.174 6.03081 26.1626 6.03081L25.9915 6.03652C25.9743 6.03652 25.9629 6.02511 25.9572 6.00799C25.9572 6.00799 25.9572 6.00799 25.9572 6.00228L25.9743 5.84252C25.9743 5.82541 25.9915 5.814 26.0086 5.814C26.0257 5.814 26.0257 5.814 26.0314 5.8197Z" fill="white"/>
<path d="M20.959 5.98519L20.9647 6.17348C20.9647 6.19059 20.9533 6.20201 20.9362 6.20201C20.9305 6.20201 20.9191 6.1963 20.9134 6.1906L20.8049 6.06507C20.7935 6.05366 20.7935 6.03654 20.8049 6.02513C20.8049 6.02513 20.8049 6.02513 20.8107 6.01942L20.9134 5.95666C20.9248 5.95095 20.9419 5.95095 20.9533 5.96807C20.9533 5.97378 20.959 5.97948 20.959 5.98519Z" fill="white"/>
<path d="M20.8335 6.57857C20.6166 6.79539 20.6395 7.26897 20.7308 7.52573C20.7365 7.53714 20.7308 7.54285 20.7251 7.55426L20.3485 7.8966C20.3428 7.90231 20.3371 7.90231 20.3371 7.8966C20.3371 7.8966 20.3371 7.8966 20.3371 7.8909C20.2914 7.69119 20.2515 7.41161 20.2287 7.04645C20.2172 6.90951 20.2401 6.77828 20.2971 6.66416C20.3599 6.53293 20.4341 6.41311 20.5254 6.29329C20.5482 6.26476 20.5653 6.26476 20.5881 6.28758L20.8335 6.53293C20.8449 6.55575 20.8449 6.56716 20.8335 6.57857Z" fill="white"/>
<path d="M26.0941 6.35606L26.0827 7.25186C26.0827 7.26327 26.0713 7.26897 26.0656 7.26897C26.0599 7.26897 26.0599 7.26897 26.0542 7.26327L25.7632 7.05216C25.7575 7.04645 25.7518 7.04074 25.7575 7.03504L25.8887 6.4017C25.8887 6.396 25.8944 6.39029 25.9001 6.39029L26.0713 6.33894C26.0827 6.33323 26.0941 6.33894 26.0941 6.35035C26.0941 6.35606 26.0941 6.35606 26.0941 6.35606Z" fill="white"/>
<path d="M25.4095 7.14343L25.2212 8.04494C25.2155 8.06205 25.204 8.07346 25.1869 8.06776C24.8332 8.06776 24.4908 8.1134 24.1599 8.2047C24.1314 8.2104 24.1143 8.20469 24.1085 8.17046C24.023 7.71971 23.9374 7.27466 23.926 6.81249C23.926 6.78967 23.9374 6.77826 23.9602 6.77826C24.4737 6.77826 24.9473 6.88667 25.3866 7.09208C25.4038 7.10919 25.4095 7.12631 25.4095 7.14343Z" fill="white"/>
<path d="M23.2013 7.13204L23.053 6.92093C23.0416 6.90381 23.0473 6.88099 23.0644 6.86958C23.0701 6.86387 23.0758 6.86387 23.0815 6.86387L23.6692 6.7954C23.692 6.7897 23.7091 6.80111 23.7091 6.82964C23.7263 7.28039 23.7833 7.71973 23.8803 8.14196C23.8917 8.1876 23.926 8.22184 23.9203 8.26178C23.9203 8.27889 23.9088 8.29031 23.8974 8.29601C23.538 8.42724 23.1842 8.59842 22.8362 8.80953C22.8019 8.83235 22.7563 8.82094 22.7392 8.78671C22.7335 8.7753 22.7278 8.76388 22.7278 8.75818C22.6878 8.1876 22.5623 7.63415 22.3683 7.0921C22.3569 7.06357 22.3683 7.04645 22.3968 7.04075L22.7221 6.95516C22.7449 6.94946 22.7677 6.96087 22.7791 6.97799C22.859 7.12063 22.9788 7.20622 23.1386 7.24616C23.247 7.26327 23.2755 7.22904 23.2013 7.13204Z" fill="white"/>
<path d="M21.0046 7.33173C20.9932 7.33173 20.9875 7.32603 20.9875 7.31462V7.3032C20.9761 7.06356 20.9932 6.86957 21.0275 6.86957H21.0332C21.0674 6.86957 21.1073 7.05786 21.1187 7.2975V7.30891C21.1187 7.32032 21.113 7.32603 21.1016 7.32603L21.0046 7.33173Z" fill="white"/>
<path d="M22.471 8.34735C22.4881 8.45576 22.4995 8.56417 22.5109 8.66687C22.5109 8.68399 22.4995 8.6954 22.4824 8.6954C22.4767 8.6954 22.471 8.6954 22.4653 8.68969C21.9118 8.38729 21.6836 7.95936 21.4839 7.37737C21.4782 7.35455 21.4839 7.33743 21.5067 7.33173L22.1115 7.1035C22.1344 7.09779 22.1458 7.1035 22.1572 7.12632C22.3112 7.5029 22.4082 7.93083 22.471 8.34735Z" fill="white"/>
<path d="M25.6948 7.31461C25.7005 7.29178 25.7119 7.28608 25.729 7.3032C25.8317 7.37737 25.9344 7.46296 26.0314 7.55425C26.1056 7.62272 26.1113 7.69119 26.0542 7.76536C25.9401 7.9023 25.7803 8.02212 25.5921 7.96506C25.5692 7.95936 25.5635 7.94224 25.5635 7.91942L25.6948 7.31461Z" fill="white"/>
<path d="M21.1587 7.52574C21.1701 7.52003 21.1815 7.52574 21.1872 7.53715L21.1929 7.54285C21.3242 7.80532 21.4097 8.02784 21.3869 8.03925L21.3698 8.05067C21.347 8.06208 21.2215 7.86237 21.0902 7.59991L21.0845 7.59421C21.0788 7.58279 21.0845 7.57138 21.0959 7.56568L21.1587 7.52574Z" fill="white"/>
<path d="M21.9289 8.75817L21.8548 8.92363C21.8491 8.93504 21.8377 8.94645 21.8205 8.94075C21.3127 8.87228 20.7364 8.5927 20.4283 8.15906C20.4226 8.15336 20.4226 8.14195 20.4283 8.13624C20.5596 7.97077 20.6851 7.85095 20.7992 7.77678C20.8049 7.77107 20.8106 7.77678 20.8106 7.78248C20.8791 7.91372 20.959 8.05065 21.0446 8.18189C21.1587 8.35876 21.3184 8.48429 21.5124 8.35306C21.541 8.33594 21.5752 8.34165 21.598 8.37017C21.6893 8.4957 21.792 8.60982 21.9061 8.71252C21.9347 8.71822 21.9404 8.74105 21.9289 8.75817Z" fill="white"/>
<path d="M26.2197 8.05067C26.2482 8.01643 26.2882 8.01643 26.3395 8.04496C26.3794 8.06779 26.3851 8.10202 26.3566 8.13626L26.2882 8.23896C26.271 8.26178 26.2482 8.27319 26.2197 8.26178L26.077 8.21043C26.0485 8.19902 26.0485 8.18761 26.0713 8.17049C26.117 8.14196 26.174 8.10202 26.2197 8.05067Z" fill="white"/>
<path d="M24.4281 9.55129C25.0443 9.95639 25.4951 10.4528 25.7461 11.1489C25.8488 11.4228 25.8888 11.6909 25.8659 11.9534C25.8602 12.0048 25.8374 12.0504 25.8032 12.0846L25.6948 12.1816C25.6548 12.2216 25.632 12.2102 25.6377 12.1531C25.7062 11.0063 24.759 10.1561 23.7776 9.70534C23.7548 9.69393 23.7377 9.69393 23.7206 9.70534C23.7035 9.71675 23.7035 9.73387 23.7092 9.75099L23.7149 9.75669C24.1257 10.0819 24.4509 10.3729 24.6906 10.6354C24.9815 10.9549 25.1755 11.3087 25.2668 11.7138C25.2897 11.8108 25.2725 11.8165 25.2155 11.7366C24.8389 11.2117 24.3767 10.7951 23.829 10.4813C23.4524 10.2645 23.0074 10.1903 22.6593 10.4756C22.6422 10.4927 22.6194 10.4984 22.5965 10.4927C22.277 10.4528 21.9974 10.5441 21.7521 10.7609C21.7464 10.7666 21.735 10.7666 21.7293 10.7552C21.7007 10.6924 21.6665 10.6297 21.638 10.5612C21.6323 10.5498 21.6323 10.5441 21.6437 10.5327C22.5338 9.59693 23.8518 8.62695 25.1927 8.66119C25.4038 8.6669 25.6206 8.70113 25.8545 8.76389C25.9858 8.79813 26.1056 8.8666 26.2197 8.95789C26.5278 9.21465 26.7731 9.49993 26.9557 9.81946C27.1098 10.0876 27.1897 10.3729 26.9957 10.6525C26.9843 10.6696 26.9614 10.6753 26.9443 10.6639C26.9386 10.6582 26.9329 10.6525 26.9272 10.6411C26.796 9.97922 26.3338 9.39723 25.6948 9.15759C25.6035 9.12336 25.5293 9.10624 25.4779 9.10624C25.3752 9.10624 25.3638 9.14047 25.4494 9.19753C26.0542 9.61975 26.5963 10.2132 26.6134 11.0005C26.6134 11.1147 26.5792 11.2231 26.5107 11.3144C26.4536 11.3885 26.3909 11.4684 26.3338 11.5426C26.2653 11.6339 26.2197 11.6225 26.1969 11.5084C26.1056 10.972 25.8488 10.4927 25.4266 10.0591C25.1356 9.75669 24.8161 9.55699 24.4737 9.45429C24.2512 9.39152 24.2398 9.42576 24.4281 9.55129Z" fill="white"/>
<path d="M22.4368 9.06628L22.1344 9.2888C22.1287 9.2945 22.1115 9.2945 22.1058 9.28309L22.0545 9.20892C22.0488 9.20321 22.0488 9.19751 22.0545 9.1861L22.2028 8.94645C22.2085 8.94075 22.2199 8.93504 22.2257 8.94075L22.4254 9.03204C22.4368 9.03775 22.4368 9.04916 22.4368 9.05486C22.4425 9.06057 22.4425 9.06057 22.4368 9.06628Z" fill="white"/>
<path d="M28.7701 11.5426C28.9813 11.2002 29.1981 10.8693 29.4092 10.5441C29.4891 10.4299 29.6203 10.3158 29.7401 10.2302C30.0197 10.042 30.2879 9.85938 30.5446 9.67679C30.5732 9.65968 30.6074 9.66538 30.6245 9.6882C30.6245 9.69391 30.6302 9.69391 30.6302 9.69962C30.6873 9.81944 30.7672 9.92214 30.8242 10.0477C31.0011 10.4471 31.1152 10.9092 31.1551 11.4227C31.2008 11.9591 31.2179 12.4897 31.2122 13.0147C31.2122 13.0432 31.2008 13.0489 31.178 13.0375C30.887 12.8891 30.5332 12.9348 30.2137 12.969C29.2837 13.0717 28.3993 13.2942 27.5605 13.6309C27.5434 13.6366 27.5263 13.6309 27.5206 13.6138C27.3608 13.2429 27.2867 12.8549 27.2867 12.4555C27.2867 12.4384 27.2924 12.4213 27.3038 12.4098C27.435 12.2843 27.5206 12.193 27.5662 12.136C27.7032 11.9534 27.7716 11.7594 27.7773 11.554C27.783 11.4456 27.7602 11.3372 27.7146 11.223C27.6632 11.0975 27.5548 11.0176 27.4578 10.9264C27.4464 10.9149 27.4464 10.9035 27.4578 10.8921C27.4635 10.8864 27.4635 10.8864 27.4692 10.8864C27.6861 10.8294 28.0797 11.0062 28.2566 11.1089C28.3879 11.1888 28.5419 11.0576 28.6446 10.9834C28.7131 10.9321 28.7245 10.9435 28.6789 11.0176L28.3137 11.5825C28.3023 11.5996 28.2966 11.6167 28.3023 11.6396C28.3023 11.6567 28.2966 11.6681 28.2794 11.6738C28.2623 11.6795 28.2509 11.6852 28.2452 11.7023C28.2281 11.748 28.2053 11.7879 28.1767 11.8222C28.1482 11.8564 28.1254 11.8963 28.1026 11.9363C28.0797 11.9819 28.0512 12.0219 28.017 12.0504C27.9942 12.0732 27.9713 12.1017 27.9542 12.1303C27.9029 12.2216 27.8401 12.3071 27.7602 12.3927C27.7032 12.4555 27.7146 12.484 27.8059 12.4783C27.9656 12.4669 28.2909 12.1588 28.3879 12.0333C28.4506 11.9591 28.5134 11.8792 28.5876 11.7936C28.6503 11.7252 28.7131 11.6396 28.7701 11.5426Z" fill="white"/>
<path d="M21.0389 11.4912C21.0218 11.514 21.0103 11.5426 21.016 11.5711C21.016 11.5996 21.0046 11.611 20.9761 11.6167C20.4341 11.6453 19.8863 11.7879 19.3386 12.0333C19.3271 12.039 19.3157 12.0333 19.31 12.0218C19.31 12.0161 19.31 12.0104 19.31 12.0047C19.3728 11.8336 19.4527 11.6681 19.5383 11.5197C19.9091 10.9092 20.5311 10.6411 21.2557 10.7495C21.2785 10.7552 21.2899 10.7666 21.2956 10.7837C21.3299 10.9092 21.3926 11.0233 21.4725 11.1146C21.4896 11.1317 21.4839 11.1489 21.4611 11.1603C21.3869 11.1945 21.3013 11.2173 21.2386 11.2744C21.1701 11.3314 21.1073 11.3999 21.0389 11.4912Z" fill="white"/>
<path d="M25.2668 13.5624C25.2554 13.6309 25.2497 13.6994 25.2497 13.7678C25.2554 13.8249 25.2383 13.8819 25.2155 13.9333C25.1869 13.9846 25.1584 14.036 25.1242 14.0873C25.1128 14.1045 25.1071 14.1216 25.1071 14.1387C25.1071 14.1615 25.0956 14.1786 25.0728 14.19C25.0557 14.2015 25.0386 14.2129 25.0329 14.2357C25.0101 14.2813 24.9929 14.3327 24.953 14.3669C24.9131 14.4069 24.8731 14.4411 24.8446 14.481C24.8104 14.521 24.7704 14.5609 24.7362 14.6009C24.3995 14.9318 24.0629 15.2456 23.7206 15.548C23.6749 15.5937 23.6521 15.645 23.6007 15.685C23.5836 15.6964 23.5893 15.7078 23.6064 15.7192C23.7377 15.7705 24.1257 15.5252 24.2455 15.4453C24.5593 15.2342 24.8617 14.9774 25.1527 14.6864C25.1983 14.6408 25.2098 14.6465 25.1869 14.7093C25.1584 14.7949 25.1242 14.8747 25.0785 14.9546C24.8275 15.4339 24.5137 15.8504 24.1485 16.2099C24.1314 16.227 24.1085 16.2441 24.0857 16.2555C23.9545 16.324 23.6064 16.227 23.4524 16.1814C23.2926 16.13 23.1956 16.033 23.1614 15.8847C23.1386 15.7705 23.0701 15.6964 22.956 15.6564C22.8133 15.6108 22.6878 15.5366 22.568 15.4339C22.5566 15.4225 22.5452 15.4111 22.5452 15.394C22.5281 15.2456 22.4881 15.0973 22.4311 14.9375C22.3797 14.7949 22.4025 14.7834 22.4938 14.9033C22.6079 15.0459 22.7163 15.1886 22.8305 15.3369C22.9275 15.4624 23.0815 15.4967 23.207 15.3997C23.8689 14.8919 24.5079 14.4354 25.0614 13.8591C25.0785 13.842 25.0785 13.8249 25.05 13.8192C25.0329 13.8135 25.0101 13.8135 24.9929 13.8249C24.8275 13.9048 24.662 14.0018 24.4965 14.1045C24.0115 14.4069 23.5494 14.7264 23.0986 15.0516C23.0872 15.063 23.0644 15.0573 23.0587 15.0459C22.7335 14.618 22.374 14.2243 21.9746 13.8705C21.9004 13.8078 21.8262 13.745 21.7464 13.6879C21.5752 13.5624 21.4326 13.3855 21.3127 13.1516C21.1872 12.912 21.1986 12.6837 21.3413 12.4726C21.3755 12.4213 21.4383 12.4099 21.4896 12.4441L21.4953 12.4498C21.6437 12.5696 21.7977 12.6894 21.9575 12.815C22.0431 12.8777 22.1229 12.9462 22.2028 13.0147C22.2884 13.0888 22.374 13.1801 22.4596 13.2771C22.7278 13.5795 22.9902 13.8933 23.2527 14.2072C23.304 14.2642 23.3554 14.327 23.4181 14.384C23.4239 14.3897 23.4296 14.3897 23.4353 14.3955C23.441 14.3955 23.4524 14.3955 23.4638 14.384C23.4695 14.3783 23.4752 14.3669 23.4695 14.3555C23.0758 13.4997 22.5052 12.7864 21.7635 12.2273C21.6094 12.1132 21.5467 11.9648 21.5752 11.7822C21.5866 11.708 21.6551 11.6567 21.7293 11.6681C21.735 11.6681 21.7407 11.6681 21.7521 11.6738C21.8434 11.7023 21.9404 11.748 22.0374 11.8108C22.2485 11.9534 22.4425 12.0903 22.6193 12.2216C22.8133 12.3642 23.013 12.5582 23.2184 12.7978C23.4866 13.1117 23.7377 13.4198 23.9773 13.7393C24.0116 13.7849 24.0515 13.8306 24.1028 13.8705C24.1599 13.9219 24.1827 13.9105 24.1599 13.8363C24.1542 13.8192 24.1485 13.7964 24.1371 13.7792C23.8233 13.0945 23.3611 12.3927 22.7677 11.9135C22.5109 11.708 22.2542 11.5312 21.986 11.3714C21.9689 11.36 21.9632 11.3486 21.9746 11.3258C22.1287 11.0177 22.4482 10.9948 22.6992 11.2059C22.9218 11.3942 23.1956 11.6738 23.5266 12.0447C23.8004 12.3528 24.0971 12.6951 24.411 13.0717C24.4338 13.1003 24.4566 13.1231 24.4794 13.1402C24.5479 13.1915 24.5707 13.1744 24.5536 13.0945C24.5365 13.0204 24.5079 12.9405 24.468 12.8663C24.1085 12.1474 23.5836 11.5083 22.9617 10.9606C22.9446 10.9435 22.9446 10.9321 22.956 10.9149C23.0302 10.818 23.1329 10.7837 23.2527 10.8122C23.3953 10.8465 23.538 10.9035 23.6749 10.9948C24.3767 11.4342 24.8845 12.0219 25.1812 12.7522C25.2725 12.9747 25.2383 13.1801 25.2839 13.4084C25.2953 13.4654 25.2953 13.5168 25.2782 13.5738C25.2782 13.5681 25.2725 13.5624 25.2668 13.5624C25.2725 13.5567 25.2668 13.5567 25.2668 13.5624Z" fill="white"/>
<path d="M26.1113 12.2843C26.1855 12.193 26.2368 12.0789 26.2653 11.9363C26.271 11.9134 26.2767 11.902 26.2939 11.8906C26.5278 11.7309 26.7332 11.6168 26.8644 11.3657C26.8701 11.3486 26.8873 11.3429 26.8987 11.3372C27.0014 11.3086 27.0927 11.3086 27.1668 11.3429C27.1954 11.3543 27.2182 11.3885 27.2182 11.4228C27.2182 11.457 27.2239 11.4912 27.2353 11.5255C27.241 11.5426 27.241 11.5654 27.2353 11.5825C27.2239 11.6339 27.2068 11.6852 27.184 11.7366C27.1668 11.7879 27.1383 11.8336 27.1041 11.8735C27.0299 11.9534 26.9557 12.0333 26.8701 12.096C26.5164 12.3471 26.1284 12.5183 25.7005 12.6096C25.6948 12.6096 25.6891 12.6095 25.6891 12.6038V12.5981C25.6891 12.5924 25.6891 12.5924 25.6948 12.5867C25.8888 12.4897 26.0257 12.3927 26.1113 12.2843Z" fill="white"/>
<path d="M20.7935 13.2315C20.7992 13.2543 20.7935 13.2771 20.7764 13.2942C20.5368 13.4825 20.2857 13.6765 20.0232 13.8819C19.9319 13.9561 19.9034 14.0474 19.9434 14.1672C20.0518 14.481 20.2229 14.7663 20.4569 15.0117C20.4683 15.0231 20.4626 15.0288 20.4512 15.0345C20.1317 15.1657 19.7608 15.2342 19.35 15.2456C19.2358 15.2513 19.1217 15.2285 19.0133 15.1771C18.437 14.9147 17.9292 14.6522 18.0947 13.9047C18.1689 13.5738 18.3172 13.2429 18.5512 12.9177C18.6196 12.8207 18.7109 12.7465 18.825 12.6837C19.4584 12.3357 20.1374 12.0846 20.862 11.9363C20.919 11.9249 20.959 11.9306 20.9818 11.9591C21.0046 11.9819 21.0103 12.0161 21.0103 12.0561C21.0103 12.0846 20.9989 12.1074 20.9761 12.1246C20.8905 12.193 20.822 12.2729 20.7878 12.3642C20.6908 12.6038 20.6908 12.8891 20.7935 13.2315Z" fill="white"/>
<path d="M25.8659 13.2828C25.8545 13.2315 25.8488 13.1801 25.8488 13.1288C25.8488 13.1059 25.8602 13.0945 25.8773 13.0888C26.1854 13.0146 26.4764 12.9062 26.7446 12.7636C26.756 12.7579 26.7731 12.7636 26.7788 12.775C26.7845 12.7807 26.7845 12.7864 26.7788 12.7921C26.7731 12.8206 26.7674 12.8549 26.7731 12.8834C26.8587 13.3456 27.0014 13.7678 27.2011 14.1501C27.2125 14.1672 27.2068 14.1786 27.1839 14.1786C26.7674 14.1786 26.3395 14.2014 25.8944 14.2471C25.8659 14.2528 25.8488 14.2357 25.8545 14.2071C25.8602 14.1615 25.8659 14.1159 25.8773 14.0759C25.9287 13.899 25.9002 13.6423 25.8944 13.4597C25.9002 13.4312 25.8887 13.3684 25.8659 13.2828Z" fill="white"/>
<path d="M31.1266 17.0429C31.1323 17.1855 31.1209 17.3225 31.1038 17.4537C31.0639 17.7675 30.4533 17.7162 30.2479 17.6705C28.4335 17.2711 26.6134 16.809 24.7932 16.2954C24.7761 16.2897 24.7704 16.2783 24.7818 16.2669C25.1755 15.8276 25.4779 15.3426 25.6947 14.8119C25.7005 14.7948 25.7176 14.7834 25.7347 14.7834C26.699 14.6636 27.6689 14.6636 28.6446 14.7948C29.1467 14.8633 29.6602 15.0174 30.0596 15.3198C30.1338 15.3768 30.2137 15.4396 30.2993 15.4966C30.4305 15.5936 30.4533 15.5708 30.3792 15.4282C29.9284 14.6008 28.8386 14.4182 27.9599 14.3612C27.9314 14.3612 27.9086 14.3441 27.8915 14.3213L27.6861 13.9789C27.6746 13.9561 27.6803 13.9276 27.7032 13.9161C27.7032 13.9161 27.7089 13.9161 27.7089 13.9104C28.6903 13.5224 29.6945 13.3056 30.7215 13.2543C30.9212 13.2429 31.081 13.3056 31.2008 13.4426C31.2122 13.454 31.2179 13.4711 31.2179 13.4939C31.2464 14.6522 31.2236 15.8047 31.1437 16.9573C31.1437 16.9687 31.138 16.9801 31.138 16.9858C31.1323 17.003 31.1266 17.0258 31.1266 17.0429ZM29.3864 16.9345C29.3921 16.9573 29.3978 16.9801 29.4149 16.9972C29.7002 17.3396 30.1966 17.5222 30.5675 17.2141C30.6245 17.1627 30.6645 17.1057 30.6759 17.0315C30.6816 16.9972 30.6587 16.963 30.6188 16.9573C30.6074 16.9573 30.596 16.9573 30.5846 16.963C30.1852 17.1057 29.8599 16.963 29.4948 16.8375C29.4662 16.8261 29.4377 16.8318 29.4149 16.8489C29.3578 16.8888 29.3407 16.9117 29.3635 16.9174C29.375 16.9117 29.3807 16.9231 29.3864 16.9345Z" fill="white"/>
<path d="M21.3983 14.23L20.8506 14.6123C20.822 14.6351 20.7821 14.6237 20.7593 14.5951L20.5082 14.2186C20.4911 14.19 20.4968 14.1501 20.5196 14.133L21.0046 13.7507C21.0332 13.7279 21.0731 13.7336 21.0959 13.7621L21.404 14.1387C21.4383 14.1615 21.4326 14.2014 21.3983 14.23C21.404 14.2243 21.404 14.2243 21.3983 14.23Z" fill="white"/>
<path d="M24.3996 18.3895C24.3311 18.4693 24.3482 18.4922 24.4452 18.4579C24.799 18.3324 25.1242 18.2354 25.5179 18.1555C26.117 18.0414 26.7104 17.9216 27.2981 17.7961C27.4807 17.7561 27.6689 17.7219 27.8515 17.6991C27.9656 17.682 28.0741 17.6877 28.1825 17.7162C28.6732 17.836 29.141 17.9501 29.5918 18.0471C29.6146 18.0528 29.6203 18.0642 29.6203 18.0871L29.5975 18.9258C29.5918 19.0513 29.5575 19.0627 29.4948 18.9543C29.2666 18.572 28.9584 18.2982 28.5705 18.127C28.5476 18.1156 28.5305 18.1213 28.5134 18.1327C28.4963 18.1441 28.4963 18.1555 28.5134 18.1726C29.084 18.6348 29.4149 19.2339 29.6089 19.93C29.626 19.9928 29.6146 20.0042 29.5633 19.9585C28.7074 19.097 27.6347 18.6976 26.3566 18.766C26.2539 18.7717 26.1512 18.7946 26.0428 18.8288C26.0314 18.8345 26.0314 18.8402 26.0314 18.8516C26.0314 18.8573 26.0371 18.8573 26.0371 18.863C26.0485 18.8687 26.0656 18.8745 26.077 18.8802C26.2825 18.9087 26.4879 18.9315 26.6762 18.96C27.9656 19.1255 29.0669 19.7132 29.7687 20.8087C29.82 20.8886 29.8485 20.9742 29.8542 21.0598C29.8657 21.3108 29.8485 21.539 29.8029 21.7387C29.8029 21.7501 29.7858 21.7616 29.7744 21.7559C29.7687 21.7559 29.7687 21.7501 29.763 21.7501C28.987 21.0312 28.1083 20.3465 27.1554 19.8901C26.6761 19.6618 26.1626 19.5363 25.6263 19.5135C25.3752 19.5021 25.1242 19.4964 24.8788 19.4793C24.468 19.4564 23.9488 19.3252 23.6749 18.9886C23.5836 18.8802 23.5038 18.7603 23.4296 18.6348C23.3326 18.4693 23.2128 18.3381 23.0644 18.2411C22.8305 18.0814 22.568 18.0585 22.277 18.1841C22.2086 18.2126 22.1458 18.2354 22.0773 18.2582C22.0431 18.2696 22.0374 18.2639 22.0659 18.2354C22.4824 17.8588 22.8704 17.4423 23.2299 16.9859C23.2584 16.9516 23.2641 16.9003 23.2413 16.8603C23.2413 16.8546 23.2242 16.8546 23.2014 16.8603C23.1842 16.866 23.1728 16.8717 23.1614 16.8774C22.9161 17.0315 22.6764 17.2141 22.4311 17.4309C22.1344 17.6877 21.8491 17.9558 21.5752 18.2297C21.5067 18.2982 21.4839 18.2811 21.5067 18.1955C21.5809 17.8988 21.598 17.5792 21.5638 17.2426C21.5182 16.8147 21.2557 16.4609 21.1758 16.0387C21.1587 15.9588 21.1359 15.8789 21.1073 15.8048C21.0389 15.6393 21.0845 15.5024 21.0731 15.3369C21.0731 15.3141 21.0788 15.297 21.1016 15.2855C21.347 15.1486 21.5695 14.9774 21.7806 14.772C21.7977 14.7549 21.8206 14.7549 21.8377 14.772C21.8434 14.7777 21.8434 14.7777 21.8491 14.7834C21.9632 15.0402 22.0317 15.2798 22.0602 15.5024C22.0944 15.7819 22.4425 15.9759 22.6707 16.0901C22.6935 16.1015 22.705 16.1186 22.7164 16.1357C22.8134 16.3753 22.9902 16.5408 23.2356 16.6321C23.538 16.7462 23.9887 16.8489 24.2969 16.7177C24.3197 16.7063 24.3482 16.7063 24.3767 16.712L24.9245 16.866C24.953 16.8717 24.953 16.8831 24.9245 16.8946C24.4281 17.0714 24.0116 17.3453 23.6692 17.7105C23.6293 17.7504 23.595 17.8018 23.5665 17.8474C23.4866 17.9958 23.5209 18.0243 23.6635 17.9387C24.274 17.585 24.8446 17.2597 25.4951 17.0543C25.5236 17.0429 25.5578 17.0429 25.5864 17.0543L27.087 17.4537C27.1212 17.4651 27.1212 17.4708 27.087 17.4823C26.6305 17.5792 26.1797 17.682 25.7233 17.7961C25.341 17.8817 24.6563 18.0756 24.3996 18.3895Z" fill="white"/>
<path d="M20.5368 15.5366C20.5425 15.5366 20.5539 15.5366 20.5539 15.5423V15.548V15.7078C20.5539 15.7363 20.5425 15.7591 20.5196 15.7705C20.2857 15.9303 20.0575 15.9246 19.8407 15.7477C19.8121 15.7249 19.8178 15.7135 19.8521 15.7078C20.0803 15.6735 20.3085 15.6165 20.5368 15.5366Z" fill="white"/>
<path d="M22.6422 20.1012C22.7962 20.2039 22.9788 20.2723 23.1842 20.3123C24.2056 20.5177 25.1869 20.1525 26.214 20.1411C26.4707 20.1411 26.756 20.1525 26.9957 20.2666C27.2068 20.3693 27.4122 20.4835 27.6062 20.6033C28.3251 21.0597 28.9927 21.579 29.6146 22.1667C29.6774 22.2237 29.666 22.2351 29.5918 22.2009C28.6674 21.7615 27.7317 21.482 26.7788 21.3621C26.699 21.3507 26.6248 21.3564 26.5506 21.3678C26.4936 21.3793 26.4879 21.3964 26.5449 21.4249C26.602 21.4534 26.6647 21.4763 26.7218 21.4991C27.5948 21.773 28.3593 22.0525 29.0098 22.3264C29.5575 22.5546 30.1852 22.8913 30.5846 23.3363C30.653 23.4105 30.7158 23.5189 30.7615 23.6616C30.9497 24.1979 31.0296 24.797 31.0182 25.4532C31.0182 25.5159 31.0011 25.573 30.9783 25.6243C30.5047 26.4916 29.82 27.0964 28.9356 27.4331C28.7131 27.5186 28.4677 27.5985 28.1939 27.6784C28.0798 27.7126 28.0798 27.7412 28.1939 27.7697C28.2909 27.7925 28.3993 27.7982 28.5248 27.7811C29.4434 27.6784 30.1795 27.279 30.7386 26.5772C30.8185 26.4745 30.8413 26.4859 30.8014 26.6114C30.6873 26.9595 30.5846 27.3189 30.499 27.6898C30.4762 27.7754 30.4419 27.8496 30.3906 27.9066C29.9113 28.4373 29.3521 28.7511 28.7074 29.0421C28.6503 29.0706 28.6503 29.0934 28.7131 29.1163C28.7587 29.1334 28.7987 29.1334 28.85 29.1277C29.3978 29.0535 29.8885 28.831 30.3164 28.4658C30.3278 28.4544 30.3449 28.4544 30.3563 28.4715C30.3621 28.4772 30.3621 28.4829 30.3621 28.4943C30.3392 29.2361 30.3963 30.052 30.6473 30.7595C30.6588 30.788 30.6473 30.8052 30.6188 30.8052C29.0611 30.8052 27.5263 30.7937 26.0257 30.7652C25.7975 30.7595 25.5236 30.7652 25.2155 30.7709C24.953 30.7766 24.6848 30.7766 24.3996 30.7709C24.371 30.7709 24.3425 30.7595 24.314 30.7424C23.7833 30.3316 23.3554 29.8238 23.0302 29.2132C22.8647 28.8994 22.7221 28.5171 22.6022 28.0721C22.5965 28.055 22.6022 28.0436 22.6251 28.0379C22.7107 28.0322 22.7962 28.0379 22.8818 28.0607C24.5251 28.5057 26.3167 28.7739 27.9485 28.3517C28.017 28.3346 28.0855 28.306 28.1596 28.2661C28.2167 28.2376 28.211 28.2204 28.1482 28.2147C28.0626 28.209 27.9885 28.209 27.9143 28.2147C26.7332 28.306 25.5407 28.2433 24.3311 28.0265C24.274 28.015 24.274 28.0093 24.3311 27.9979C25.4836 27.8382 26.5906 27.5301 27.6461 27.0793C27.8002 27.0108 27.7945 26.9823 27.629 26.9937C27.5605 26.9994 27.4578 27.0165 27.3152 27.0508C26.6761 27.2048 26.0428 27.3475 25.4152 27.4787C24.6107 27.6499 23.7947 27.724 22.9731 27.7012C22.7506 27.6955 22.5338 27.667 22.3284 27.6156C22.0031 27.5358 21.6494 27.4502 21.3127 27.4159C21.2043 27.4045 21.1016 27.3931 21.0046 27.376C19.5497 27.1364 18.0376 27.1478 16.5827 27.2733C16.4343 27.2847 16.2917 27.279 16.1548 27.2562C15.2076 27.085 14.386 26.8168 13.6842 26.446C13.3989 26.2976 13.1307 26.1264 12.8511 25.9667C12.834 25.9553 12.8169 25.961 12.8055 25.9781V25.9838C12.7998 26.0009 12.7998 26.018 12.8112 26.0352C13.3019 26.6856 14.2662 27.1535 15.0364 27.3589C15.1334 27.3817 15.1334 27.4045 15.0307 27.4102L14.5229 27.4616C14.483 27.4673 14.443 27.4616 14.4088 27.4445C14.055 27.2961 13.7184 27.1307 13.3932 26.9424C12.9367 26.6742 12.4745 26.2634 12.0067 25.7156C11.9953 25.6985 11.9896 25.6814 12.001 25.6643C12.446 24.9396 12.9709 24.2949 13.5758 23.73C14.5286 22.8342 15.7325 22.0868 16.8965 21.4877C17.6097 21.1225 18.6139 20.6318 19.9205 20.0099C20.0175 19.9642 20.1202 19.9357 20.2287 19.9243C20.3656 19.9072 20.5025 19.8787 20.6395 19.8273C20.6737 19.8159 20.6851 19.8216 20.6623 19.8558C20.2743 20.4093 19.7779 20.7687 19.1902 21.0826C19.1103 21.1282 19.116 21.151 19.2073 21.1624C19.2701 21.1681 19.3328 21.1624 19.407 21.1453C20.2857 20.9057 20.8677 20.3351 21.2671 19.5306C21.307 19.4507 21.3584 19.3765 21.4269 19.3081C21.598 19.1369 21.735 18.96 21.9575 18.8345C22.1572 18.7204 22.4368 18.515 22.6593 18.5207C22.7848 18.5264 22.8875 18.5892 22.9788 18.709C23.0872 18.8516 23.1899 19.0057 23.2926 19.1597C23.635 19.679 24.3539 19.8729 24.9473 19.8901C24.9929 19.8901 24.9987 19.8958 24.9473 19.9072C24.5251 19.9985 24.0971 20.0555 23.6692 20.0784C23.3383 20.0955 23.0188 20.0555 22.6935 20.0099C22.5281 19.9985 22.5224 20.027 22.6422 20.1012Z" fill="white"/>
<path d="M13.1364 22.8399C12.9709 23.3078 12.6857 23.8099 12.3262 24.1808C12.3205 24.1865 12.3034 24.1922 12.2977 24.1808C12.2977 24.1808 12.2977 24.1751 12.292 24.1751C12.0866 23.7928 11.8298 23.4219 11.5331 23.0567C11.5103 23.0282 11.5103 22.9883 11.5331 22.9654C12.1151 22.3207 12.6857 21.7558 13.2448 21.2765C13.4559 21.0997 13.6899 20.9627 13.9466 20.8771C14.055 20.8429 14.0607 20.86 13.9752 20.9342C13.4046 21.4135 13.3703 22.1723 13.1364 22.8399Z" fill="white"/>
<path d="M13.707 22.0811C13.8382 21.5676 14.1406 20.9856 14.7511 20.9799C15.0307 20.9742 15.3959 21.3165 15.5956 21.4991C15.6013 21.5048 15.607 21.5162 15.5956 21.5276L15.5899 21.5333C14.7968 21.9955 14.095 22.4919 13.4788 23.0225C13.4445 23.0511 13.4331 23.0453 13.4445 22.9997C13.5415 22.703 13.6271 22.4006 13.707 22.0811Z" fill="white"/>
<path d="M10.8085 23.8556C10.797 23.8327 10.797 23.8099 10.8142 23.7871L11.225 23.3078C11.2535 23.2736 11.282 23.2736 11.3106 23.3078C11.5844 23.6502 11.8355 24.0267 12.0523 24.4433C12.0694 24.4775 12.0694 24.506 12.0466 24.5345L11.6187 25.1279C11.6073 25.1508 11.5787 25.1508 11.5559 25.1394C11.5502 25.1337 11.5445 25.1279 11.5445 25.1279L10.8085 23.8556Z" fill="white"/>
<path d="M10.8655 26.3262C10.5346 25.8412 10.2892 25.3162 10.0838 24.7628C10.0781 24.7457 10.0781 24.7285 10.0895 24.7114L10.5346 24.1409C10.546 24.1237 10.5688 24.1237 10.5859 24.1351C10.5916 24.1409 10.5916 24.1409 10.5973 24.1466C10.8427 24.6087 11.1052 25.0424 11.379 25.4589C11.3904 25.476 11.3904 25.4931 11.379 25.5102L10.894 26.3205C10.8883 26.3376 10.8769 26.3376 10.8655 26.3262Z" fill="white"/>
<path d="M9.86132 25.1279C10.0667 25.6643 10.3406 26.1721 10.6829 26.6571C10.6944 26.6742 10.6944 26.6913 10.6886 26.7084C10.6772 26.737 10.6601 26.7598 10.6373 26.7712C10.6202 26.7769 10.6031 26.7769 10.5917 26.7655C10.2151 26.4517 9.82708 25.8868 9.61597 25.4246C9.60456 25.3961 9.60456 25.3733 9.62168 25.3448L9.79285 25.1108C9.80426 25.0937 9.82708 25.0937 9.8442 25.1051C9.85561 25.1108 9.86132 25.1222 9.86132 25.1279Z" fill="white"/>
<path d="M6.4778 30.4457C7.3679 28.8481 8.32076 27.2847 9.33638 25.7556C9.34779 25.7385 9.37061 25.7327 9.38203 25.7442C9.38773 25.7499 9.38773 25.7499 9.39344 25.7556C9.58743 26.0979 9.80996 26.4231 10.061 26.7255C10.1751 26.8682 10.3006 26.9823 10.4376 27.0793C10.4547 27.0907 10.4604 27.1078 10.449 27.1307C10.1523 27.6898 9.8499 28.2262 9.5589 28.7511C9.16521 29.4415 8.64598 30.1661 7.94418 30.5085C7.48772 30.731 6.89432 30.8166 6.40363 30.6397C6.3808 30.634 6.3808 30.6226 6.39222 30.5997C6.42074 30.5427 6.44927 30.4913 6.4778 30.4457Z" fill="white"/>
<path d="M11.3049 26.8226L11.767 26.018C11.7785 26.0009 11.7956 25.9952 11.8127 26.0066C11.8184 26.0066 11.8184 26.0123 11.8241 26.0123C12.4118 26.7199 13.125 27.2562 13.9695 27.6157C14.0037 27.6328 14.0037 27.6385 13.9638 27.6442C13.7241 27.6613 13.4674 27.6784 13.2049 27.6898C13.0565 27.6955 12.9196 27.6784 12.777 27.6328C12.2349 27.4502 11.7442 27.2448 11.3163 26.8796C11.2935 26.8625 11.2935 26.8397 11.3049 26.8226Z" fill="white"/>
<path d="M11.5844 29.4358C11.6415 29.47 11.71 29.4928 11.7841 29.5042C12.5544 29.6012 13.2163 29.122 13.804 28.6655C13.8325 28.6427 13.8439 28.6484 13.8268 28.6826C13.5986 29.2132 13.3076 29.6925 12.9481 30.1205C12.8625 30.2232 12.7826 30.3202 12.7085 30.4172C12.6172 30.5313 12.4517 30.5541 12.3376 30.4628L10.1808 28.8538C10.1694 28.8424 10.1694 28.8367 10.1808 28.831C10.1865 28.8253 10.1922 28.8253 10.1979 28.8195C10.2037 28.8138 10.2094 28.8081 10.2094 28.8024C10.5061 28.2604 10.7971 27.7183 11.0937 27.182C11.1052 27.1592 11.1223 27.1592 11.1394 27.1763C11.3733 27.376 11.6358 27.5415 11.9268 27.6613C12.0751 27.724 12.155 27.8325 12.3148 27.8724C12.834 27.9922 13.3076 28.1577 13.8553 28.1577C13.8839 28.1577 13.8896 28.1691 13.8667 28.1862C13.5872 28.3973 13.2905 28.6141 12.9824 28.8253C12.5658 29.1105 12.1037 29.2931 11.5959 29.3673C11.5331 29.3787 11.5274 29.4015 11.5844 29.4358Z" fill="white"/>
<path d="M9.31928 30.1319C9.55892 29.858 9.79286 29.5328 9.98114 29.2018C9.99256 29.179 10.0268 29.1676 10.0496 29.1847C10.0496 29.1847 10.0553 29.1847 10.0553 29.1904L11.807 30.497C11.8412 30.5199 11.8355 30.537 11.7956 30.537L9.9412 30.6169C9.89556 30.6169 9.85562 30.6055 9.82138 30.5769L9.32498 30.1889C9.30787 30.1718 9.30787 30.149 9.31928 30.1319Z" fill="white"/>
<path d="M8.80576 30.6454L9.0454 30.4343C9.05681 30.4229 9.07964 30.4229 9.09675 30.4343L9.29075 30.5883C9.33639 30.6226 9.33069 30.6454 9.27363 30.6454L8.81717 30.6625C8.79435 30.6682 8.78864 30.6625 8.80576 30.6454Z" fill="white"/>
<path d="M8.10964 37.9145V39.7061C8.10964 39.7175 8.10394 39.7232 8.09253 39.7232H6.51774C6.50633 39.7232 6.50063 39.7175 6.50063 39.7061V31.952C6.50063 31.9406 6.50633 31.9349 6.51774 31.9349H8.09253C8.10394 31.9349 8.10964 31.9406 8.10964 31.952V36.6535C8.10964 36.6649 8.11535 36.6706 8.12676 36.6706C8.13247 36.6706 8.13817 36.6706 8.13817 36.6649L9.72437 35.0787C9.73008 35.073 9.73008 35.073 9.73578 35.073H11.7727C11.7841 35.073 11.7898 35.0787 11.7898 35.0902C11.7898 35.0959 11.7899 35.1016 11.7841 35.1016L9.61596 37.2869C9.61026 37.2926 9.61026 37.304 9.61596 37.3097L12.001 39.6947C12.0067 39.7004 12.0067 39.7118 12.001 39.7175C11.9953 39.7232 11.9953 39.7232 11.9896 39.7232H9.96401C9.95831 39.7232 9.9526 39.7232 9.9526 39.7175L8.13817 37.9031C8.13247 37.8974 8.12106 37.8974 8.11535 37.9031C8.10964 37.9088 8.10964 37.9088 8.10964 37.9145Z" fill="white"/>
<path d="M3.97299 35.4668C4.41804 35.6722 4.80032 35.9403 5.12555 36.2827C5.45077 36.6193 5.62195 37.0358 5.61054 37.5094C5.59342 38.274 5.31954 38.9815 4.64627 39.398C4.36668 39.5692 4.0871 39.689 3.80752 39.7518C2.61502 40.0199 1.5024 39.8431 0.463955 39.2211C0.292783 39.1184 0.144433 39.0157 0.0189071 38.913C-0.00391591 38.8959 -0.00391574 38.8788 0.00749575 38.856L0.823417 37.4809C0.834829 37.4638 0.851945 37.4581 0.869062 37.4752C1.21711 37.7605 1.62793 37.9944 2.1015 38.1827C2.63214 38.3881 3.73335 38.3881 3.74476 37.5836C3.75046 37.3896 3.66488 37.2241 3.488 37.0929C3.33394 36.9788 3.18559 36.8818 3.04866 36.819C2.68349 36.6421 2.32973 36.471 1.99309 36.3055C1.19429 35.9118 0.583776 35.1872 0.652245 34.2628C0.697891 33.6352 0.960355 33.1331 1.44534 32.7337C1.98168 32.2944 2.61502 32.0947 3.33394 32.146C3.99581 32.1917 4.82314 32.4085 5.3766 32.8307C5.39372 32.8421 5.39942 32.8592 5.38801 32.8763L4.72044 34.1887C4.71473 34.1944 4.70903 34.2001 4.69762 34.1944C4.26969 33.9262 3.82464 33.7607 3.36818 33.698C2.95166 33.6409 2.41532 33.7607 2.32403 34.2286C2.27838 34.4454 2.36397 34.628 2.56937 34.7707C3.00301 35.0559 3.49941 35.2442 3.97299 35.4668Z" fill="white"/>
<path d="M13.2619 34.1145C13.7882 34.1145 14.2148 33.6879 14.2148 33.1616C14.2148 32.6354 13.7882 32.2088 13.2619 32.2088C12.7357 32.2088 12.3091 32.6354 12.3091 33.1616C12.3091 33.6879 12.7357 34.1145 13.2619 34.1145Z" fill="white"/>
<path d="M41.4426 34.5424L40.2672 35.307C40.2558 35.3127 40.2444 35.3127 40.2387 35.3013C40.2387 35.2956 40.233 35.2956 40.233 35.2899V33.6466C40.233 33.6409 40.2387 33.6352 40.2387 33.6295L42.3555 32.2601C42.3612 32.2601 42.3612 32.2544 42.3669 32.2601H43.1486C43.16 32.2601 43.1657 32.2658 43.1657 32.2773V39.7061C43.1657 39.7175 43.16 39.7232 43.1486 39.7232H41.4825C41.4711 39.7232 41.4654 39.7175 41.4654 39.7061V34.5595C41.4654 34.5481 41.4597 34.5424 41.4483 34.5424C41.4483 34.5367 41.4483 34.5367 41.4426 34.5424Z" fill="white"/>
<path d="M45.2655 34.5424L44.0901 35.307C44.0787 35.3127 44.0672 35.3127 44.0615 35.3013C44.0615 35.2956 44.0558 35.2956 44.0558 35.2899V33.6466C44.0558 33.6409 44.0615 33.6352 44.0615 33.6295L46.1784 32.2601C46.1841 32.2601 46.1841 32.2544 46.1898 32.2601H46.9715C46.9829 32.2601 46.9886 32.2658 46.9886 32.2773V39.7061C46.9886 39.7175 46.9829 39.7232 46.9715 39.7232H45.3054C45.294 39.7232 45.2883 39.7175 45.2883 39.7061V34.5595C45.2883 34.5481 45.2826 34.5424 45.2712 34.5424C45.2712 34.5367 45.2712 34.5367 45.2655 34.5424Z" fill="white"/>
<path d="M16.8623 39.3295V42.0512C16.8623 42.074 16.8508 42.0854 16.828 42.0854H15.2875C15.2646 42.0854 15.2589 42.074 15.2589 42.0569V35.1016C15.2589 35.0845 15.2704 35.0731 15.2875 35.0731H16.8337C16.8451 35.0731 16.8508 35.0788 16.8508 35.0902V35.5752C16.8508 35.6094 16.8623 35.6094 16.8851 35.5866C17.2959 35.1415 17.8208 34.9304 18.4599 34.9475C19.7151 34.9818 20.6166 35.9689 20.6908 37.1899C20.7307 37.7833 20.6166 38.2968 20.3542 38.7304C19.8977 39.4836 19.2358 39.8659 18.3743 39.8659C17.8322 39.8659 17.2902 39.6947 16.9022 39.3181C16.8737 39.2896 16.8623 39.2953 16.8623 39.3295ZM19.0019 37.401C19.0019 36.7962 18.5112 36.3055 17.9064 36.3055C17.3016 36.3055 16.8109 36.7962 16.8109 37.401C16.8109 38.0058 17.3016 38.4965 17.9064 38.4965C18.5169 38.4908 19.0019 38.0058 19.0019 37.401Z" fill="white"/>
<path d="M23.1386 39.3296V42.0512C23.1386 42.074 23.1272 42.0854 23.1044 42.0854H21.5638C21.541 42.0854 21.5353 42.074 21.5353 42.0569V35.1016C21.5353 35.0845 21.5467 35.0731 21.5638 35.0731H23.0929C23.1101 35.0731 23.1215 35.0845 23.1215 35.1016V35.5581C23.1215 35.6037 23.1386 35.6094 23.1671 35.5752C23.5152 35.1986 23.9431 34.9932 24.4566 34.9532C25.3981 34.8791 26.1912 35.3013 26.6419 36.1058C27.1155 36.9503 27.0813 38.1199 26.4936 38.9187C26.0542 39.5178 25.4722 39.8317 24.7419 39.8545C24.1542 39.8716 23.5836 39.7061 23.1671 39.3067C23.15 39.2896 23.1386 39.2953 23.1386 39.3296ZM25.2782 37.401C25.2782 36.7962 24.7876 36.3055 24.1827 36.3055C23.5779 36.3055 23.0872 36.7962 23.0872 37.401C23.0872 38.0058 23.5779 38.4965 24.1827 38.4965C24.7933 38.4908 25.2782 38.0058 25.2782 37.401Z" fill="white"/>
<path d="M29.1524 37.6635C29.1524 38.1827 29.5347 38.525 30.0197 38.5764C30.5332 38.6277 30.8927 38.4908 31.2464 38.0971C31.2636 38.08 31.2864 38.0743 31.3092 38.0857L32.4047 38.6334C32.4275 38.6449 32.4332 38.662 32.4218 38.6848C31.8912 39.5464 31.0011 39.8773 30.0254 39.8659C28.5876 39.8545 27.3951 38.719 27.4864 37.2527C27.5605 36.0487 28.5362 35.1187 29.6888 34.9761C30.8014 34.8391 31.9254 35.2956 32.3477 36.3683C32.4789 36.7049 32.5359 37.1214 32.5188 37.6064C32.5188 37.6235 32.5074 37.6349 32.4903 37.6349H29.1867C29.1638 37.6292 29.1524 37.6406 29.1524 37.6635ZM29.2038 36.7334L30.9326 36.7391C30.9383 36.7391 30.9383 36.7334 30.9383 36.7334C30.9383 36.3283 30.5561 35.9974 30.0882 35.9974H30.0482C29.5747 35.9974 29.1924 36.3226 29.1924 36.7277C29.1981 36.7277 29.1981 36.7334 29.2038 36.7334Z" fill="white"/>
<path d="M35.0065 35.7121C35.5942 34.919 36.5414 34.7193 37.3972 35.2157C37.4143 35.2271 37.42 35.2385 37.4086 35.2613L36.7582 36.5737C36.7525 36.5851 36.7468 36.5851 36.7354 36.5794C36.4044 36.3625 36.045 36.2941 35.6627 36.374C35.172 36.4767 34.9552 36.9731 34.9609 37.4295C34.9666 38.177 34.9666 38.9301 34.9666 39.6947C34.9666 39.7118 34.9495 39.7289 34.9323 39.7289H33.3861C33.369 39.7289 33.3576 39.7175 33.3576 39.7004V35.1073C33.3576 35.0902 33.369 35.0787 33.3861 35.0787H34.9266C34.9552 35.0787 34.9666 35.0902 34.9666 35.1187V35.7007C34.9666 35.7406 34.978 35.7463 35.0065 35.7121Z" fill="white"/>
<path d="M12.4574 35.0731H14.0265C14.0379 35.0731 14.0436 35.0845 14.0436 35.0902V39.7061C14.0436 39.7175 14.0322 39.7232 14.0265 39.7232H12.4574C12.446 39.7232 12.4403 39.7118 12.4403 39.7061V35.0959C12.4346 35.0845 12.446 35.0731 12.4574 35.0731Z" fill="white"/>
</svg>
