<svg width="291" height="221" viewBox="0 0 291 221" fill="none" xmlns="http://www.w3.org/2000/svg">
<path fill-rule="evenodd" clip-rule="evenodd" d="M106.513 19.4169C99.5844 10.0987 96.1201 5.43959 94.6871 4.2361C91.7468 1.76666 91.8254 1.80616 88.0892 0.920105C86.2684 0.488281 83.4694 0.488281 77.8715 0.488281H30.1594C20.8406 0.488281 16.1812 0.488281 12.5058 2.01069C7.60519 4.04057 3.71171 7.93405 1.68183 12.8346C0.159424 16.51 0.159424 21.1694 0.159424 30.4883V190.488C0.159424 199.807 0.159424 204.467 1.68183 208.142C3.71171 213.043 7.60519 216.936 12.5058 218.966C16.1812 220.488 20.8406 220.488 30.1594 220.488H260.159C269.478 220.488 274.138 220.488 277.813 218.966C282.714 216.936 286.607 213.043 288.637 208.142C290.159 204.467 290.159 199.807 290.159 190.488V30.4883C290.159 21.1695 290.159 16.51 288.637 12.8346C286.607 7.93405 282.714 4.04057 277.813 2.01069C274.138 0.488281 269.478 0.488281 260.159 0.488281H213.447C207.849 0.488281 205.05 0.488281 203.23 0.920104C199.493 1.80616 199.572 1.76666 196.632 4.23609C195.199 5.43958 191.734 10.0987 184.806 19.4169C176.24 30.9366 161.902 38.4883 145.659 38.4883C129.417 38.4883 115.079 30.9366 106.513 19.4169Z" fill="white"/>
</svg>
