<svg width="40" height="40" viewBox="0 0 40 40" fill="none" xmlns="http://www.w3.org/2000/svg">
<rect width="40" height="40" rx="7" fill="#FCFCFC"/>
<rect x="0.5" y="0.5" width="39" height="39" rx="6.5" stroke="black" stroke-opacity="0.4"/>
<path d="M30 12.5C30 12.1685 29.8683 11.8505 29.6339 11.6161C29.3995 11.3817 29.0815 11.25 28.75 11.25H11.25C10.9185 11.25 10.6005 11.3817 10.3661 11.6161C10.1317 11.8505 10 12.1685 10 12.5C10 12.8315 10.1317 13.1495 10.3661 13.3839C10.6005 13.6183 10.9185 13.75 11.25 13.75H28.75C29.0815 13.75 29.3995 13.6183 29.6339 13.3839C29.8683 13.1495 30 12.8315 30 12.5ZM30 27.5C30 27.1685 29.8683 26.8505 29.6339 26.6161C29.3995 26.3817 29.0815 26.25 28.75 26.25H11.25C10.9185 26.25 10.6005 26.3817 10.3661 26.6161C10.1317 26.8505 10 27.1685 10 27.5C10 27.8315 10.1317 28.1495 10.3661 28.3839C10.6005 28.6183 10.9185 28.75 11.25 28.75H28.75C29.0815 28.75 29.3995 28.6183 29.6339 28.3839C29.8683 28.1495 30 27.8315 30 27.5ZM21.25 18.75C21.5815 18.75 21.8995 18.8817 22.1339 19.1161C22.3683 19.3505 22.5 19.6685 22.5 20C22.5 20.3315 22.3683 20.6495 22.1339 20.8839C21.8995 21.1183 21.5815 21.25 21.25 21.25H11.25C10.9185 21.25 10.6005 21.1183 10.3661 20.8839C10.1317 20.6495 10 20.3315 10 20C10 19.6685 10.1317 19.3505 10.3661 19.1161C10.6005 18.8817 10.9185 18.75 11.25 18.75H21.25Z" fill="#141312"/>
</svg>
