<svg width="15" height="15" viewBox="0 0 15 15" fill="none" xmlns="http://www.w3.org/2000/svg">
<path d="M4.91857 1H2.85714C2.3646 1 1.89223 1.19566 1.54394 1.54394C1.19566 1.89223 1 2.3646 1 2.85714V4.71429C1 9.84279 5.15721 14 10.2857 14H12.1429C12.6354 14 13.1078 13.8043 13.4561 13.4561C13.8043 13.1078 14 12.6354 14 12.1429V10.8596C13.9999 10.6872 13.9518 10.5182 13.8611 10.3716C13.7704 10.225 13.6407 10.1065 13.4865 10.0294L11.2431 8.90771C11.1241 8.8482 10.9937 8.81494 10.8607 8.8102C10.7278 8.80546 10.5954 8.82935 10.4724 8.88025C10.3495 8.93114 10.239 9.00785 10.1483 9.10519C10.0576 9.20253 9.98887 9.31822 9.94679 9.44443L9.671 10.2736C9.58443 10.5334 9.40596 10.7527 9.16914 10.8901C8.93232 11.0276 8.65345 11.0739 8.38493 11.0202C7.29797 10.8027 6.29972 10.2683 5.51596 9.48436C4.73221 8.70044 4.19802 7.70208 3.98071 6.61507C3.92707 6.34655 3.97332 6.06768 4.1108 5.83086C4.24827 5.59404 4.4675 5.41557 4.72729 5.329L5.75614 4.98543C5.97785 4.91147 6.16352 4.75663 6.27609 4.5518C6.38866 4.34698 6.41984 4.10724 6.36343 3.88043L5.81929 1.70293C5.76898 1.50213 5.65303 1.32389 5.48984 1.19654C5.32664 1.06918 5.12558 1.00001 4.91857 1Z" stroke="#222222" stroke-width="1.5"/>
</svg>
