<svg width="22" height="25" viewBox="0 0 22 25" fill="none" xmlns="http://www.w3.org/2000/svg">
<path d="M17.4166 11.0134H12.1966V5.13336C12.1966 4.79641 12.0774 4.46776 11.857 4.22091C11.6357 3.97302 11.3282 3.82669 11 3.82669C10.6717 3.82669 10.3642 3.97302 10.1429 4.22091C9.92252 4.46776 9.80329 4.79641 9.80329 5.13336V11.0134H4.58329C4.25502 11.0134 3.94758 11.1597 3.72625 11.4076C3.50585 11.6544 3.38663 11.9831 3.38663 12.32C3.38663 12.657 3.50585 12.9856 3.72625 13.2325C3.94758 13.4804 4.25502 13.6267 4.58329 13.6267H9.80329V19.5067C9.80329 19.8436 9.92252 20.1723 10.1429 20.4191C10.3642 20.667 10.6717 20.8134 11 20.8134C11.3282 20.8134 11.6357 20.667 11.857 20.4191C12.0774 20.1723 12.1966 19.8436 12.1966 19.5067V13.6267H17.4166C17.7449 13.6267 18.0523 13.4804 18.2737 13.2325C18.4941 12.9856 18.6133 12.657 18.6133 12.32C18.6133 11.9831 18.4941 11.6544 18.2737 11.4076C18.0523 11.1597 17.7449 11.0134 17.4166 11.0134Z" fill="#A1A8B0" stroke="#A1A8B0" stroke-width="0.56"/>
</svg>
