<svg width="20" height="20" viewBox="0 0 20 20" fill="none" xmlns="http://www.w3.org/2000/svg">
<path d="M10.7 1.55713L12.9714 6.14284C13.0231 6.25923 13.1044 6.36005 13.2071 6.43525C13.3099 6.51045 13.4306 6.55739 13.5571 6.57141L18.5714 7.31427C18.7166 7.33293 18.8535 7.39252 18.9661 7.48606C19.0787 7.57961 19.1623 7.70326 19.2073 7.84257C19.2522 7.98189 19.2566 8.13111 19.2199 8.27281C19.1832 8.41452 19.1069 8.54286 19 8.64284L15.3857 12.2286C15.2935 12.3147 15.2242 12.4226 15.1843 12.5424C15.1444 12.6621 15.1351 12.79 15.1571 12.9143L16.0286 17.9571C16.0538 18.102 16.0379 18.2511 15.9825 18.3874C15.9272 18.5237 15.8348 18.6417 15.7157 18.728C15.5966 18.8144 15.4557 18.8655 15.309 18.8757C15.1622 18.8859 15.0156 18.8547 14.8857 18.7857L10.3714 16.4C10.2558 16.3432 10.1288 16.3137 10 16.3137C9.87123 16.3137 9.74417 16.3432 9.62857 16.4L5.11429 18.7857C4.98441 18.8547 4.83777 18.8859 4.69104 18.8757C4.54431 18.8655 4.40339 18.8144 4.28431 18.728C4.16523 18.6417 4.07277 18.5237 4.01746 18.3874C3.96215 18.2511 3.9462 18.102 3.97143 17.9571L4.84286 12.8571C4.86495 12.7328 4.8556 12.605 4.81568 12.4852C4.77576 12.3655 4.70653 12.2576 4.61429 12.1714L0.957147 8.64284C0.84895 8.54012 0.772861 8.40823 0.738095 8.26315C0.70333 8.11806 0.71138 7.96601 0.761271 7.82541C0.811162 7.68481 0.900752 7.56169 1.01919 7.47097C1.13763 7.38025 1.27983 7.32582 1.42858 7.31427L6.44286 6.57141C6.56943 6.55739 6.69011 6.51045 6.79288 6.43525C6.89565 6.36005 6.97691 6.25923 7.02858 6.14284L9.3 1.55713C9.36186 1.42357 9.46063 1.31049 9.58467 1.23125C9.7087 1.152 9.85282 1.10989 10 1.10989C10.1472 1.10989 10.2913 1.152 10.4153 1.23125C10.5394 1.31049 10.6381 1.42357 10.7 1.55713Z" stroke="#1F2C37" stroke-width="1.5" stroke-linecap="round" stroke-linejoin="round"/>
</svg>
