<svg width="52" height="42" viewBox="0 0 52 42" fill="none" xmlns="http://www.w3.org/2000/svg">
<path d="M14.5383 42H4.84569C3.56053 42 2.32801 41.4895 1.41927 40.5807C0.510527 39.672 0 38.4395 0 37.1543L0 17.7691C0 17.3407 0.170197 16.9298 0.473149 16.6269C0.776101 16.3239 1.18699 16.1537 1.61543 16.1537C2.04387 16.1537 2.45476 16.3239 2.75771 16.6269C3.06067 16.9298 3.23086 17.3407 3.23086 17.7691V37.1543C3.23086 37.5826 3.401 37.9933 3.70383 38.2962C4.00667 38.599 4.41741 38.7691 4.84569 38.7691H14.5383C14.9666 38.7691 15.3773 38.599 15.6801 38.2962C15.983 37.9933 16.1531 37.5826 16.1531 37.1543V4.84569C16.1531 4.41741 15.983 4.00667 15.6801 3.70383C15.3773 3.401 14.9666 3.23086 14.5383 3.23086H4.84569C4.41741 3.23086 4.00667 3.401 3.70383 3.70383C3.401 4.00667 3.23086 4.41741 3.23086 4.84569V11.3074C3.23086 11.7359 3.06067 12.1467 2.75771 12.4497C2.45476 12.7526 2.04387 12.9228 1.61543 12.9228C1.18699 12.9228 0.776101 12.7526 0.473149 12.4497C0.170197 12.1467 0 11.7359 0 11.3074L0 4.84569C0 3.56053 0.510527 2.32801 1.41927 1.41927C2.32801 0.510527 3.56053 0 4.84569 0H14.5383C15.8234 0 17.056 0.510527 17.9647 1.41927C18.8734 2.32801 19.384 3.56053 19.384 4.84569V37.1543C19.384 38.4395 18.8734 39.672 17.9647 40.5807C17.056 41.4895 15.8234 42 14.5383 42Z" fill="#03835E"/>
<path d="M30.6926 42H21C20.3636 42 19.7335 41.8747 19.1456 41.6311C18.5577 41.3876 18.0235 41.0307 17.5736 40.5807C16.6648 39.672 16.1543 38.4395 16.1543 37.1543V4.84569C16.1543 3.56053 16.6648 2.32801 17.5736 1.41927C18.4823 0.510527 19.7148 0 21 0H30.6926C31.9777 0 33.2103 0.510527 34.119 1.41927C35.0277 2.32801 35.5383 3.56053 35.5383 4.84569V37.1543C35.5383 38.4395 35.0277 39.672 34.119 40.5807C33.2103 41.4895 31.9777 42 30.6926 42ZM21 3.23086C20.5717 3.23086 20.161 3.401 19.8581 3.70383C19.5553 4.00667 19.3852 4.41741 19.3852 4.84569V37.1543C19.3852 37.5826 19.5553 37.9933 19.8581 38.2962C20.161 38.599 20.5717 38.7691 21 38.7691H30.6926C31.1209 38.7691 31.5316 38.599 31.8344 38.2962C32.1373 37.9933 32.3074 37.5826 32.3074 37.1543V4.84569C32.3074 4.41741 32.1373 4.00667 31.8344 3.70383C31.5316 3.401 31.1209 3.23086 30.6926 3.23086H21Z" fill="#03835E"/>
<path d="M46.8467 42H37.1542C35.869 42 34.6365 41.4895 33.7277 40.5807C32.819 39.672 32.3085 38.4395 32.3085 37.1543V4.84569C32.3085 3.56053 32.819 2.32801 33.7277 1.41927C34.6365 0.510527 35.869 0 37.1542 0H46.8467C48.1319 0 49.3644 0.510527 50.2732 1.41927C51.1819 2.32801 51.6924 3.56053 51.6924 4.84569V17.7691C51.6924 18.1976 51.5222 18.6085 51.2193 18.9114C50.9163 19.2144 50.5054 19.3846 50.077 19.3846C49.6486 19.3846 49.2377 19.2144 48.9347 18.9114C48.6318 18.6085 48.4616 18.1976 48.4616 17.7691V4.84569C48.4616 4.41741 48.2914 4.00667 47.9886 3.70383C47.6858 3.401 47.275 3.23086 46.8467 3.23086H37.1542C36.7259 3.23086 36.3151 3.401 36.0123 3.70383C35.7095 4.00667 35.5393 4.41741 35.5393 4.84569V37.1543C35.5393 37.5826 35.7095 37.9933 36.0123 38.2962C36.3151 38.599 36.7259 38.7691 37.1542 38.7691H46.8467C47.275 38.7691 47.6858 38.599 47.9886 38.2962C48.2914 37.9933 48.4616 37.5826 48.4616 37.1543V24.2309C48.4616 23.8024 48.6318 23.3915 48.9347 23.0886C49.2377 22.7856 49.6486 22.6154 50.077 22.6154C50.5054 22.6154 50.9163 22.7856 51.2193 23.0886C51.5222 23.3915 51.6924 23.8024 51.6924 24.2309V37.1543C51.6924 38.4395 51.1819 39.672 50.2732 40.5807C49.3644 41.4895 48.1319 42 46.8467 42Z" fill="#03835E"/>
<path d="M11.3073 9.69278H8.07643C7.64799 9.69278 7.2371 9.52258 6.93415 9.21963C6.6312 8.91668 6.461 8.50578 6.461 8.07735C6.461 7.64891 6.6312 7.23801 6.93415 6.93506C7.2371 6.63211 7.64799 6.46191 8.07643 6.46191H11.3073C11.7357 6.46191 12.1466 6.63211 12.4496 6.93506C12.7525 7.23801 12.9227 7.64891 12.9227 8.07735C12.9227 8.50578 12.7525 8.91668 12.4496 9.21963C12.1466 9.52258 11.7357 9.69278 11.3073 9.69278Z" fill="#03835E"/>
<path d="M11.3073 16.1542H8.07643C7.64799 16.1542 7.2371 15.984 6.93415 15.6811C6.6312 15.3781 6.461 14.9672 6.461 14.5388C6.461 14.1103 6.6312 13.6994 6.93415 13.3965C7.2371 13.0935 7.64799 12.9233 8.07643 12.9233H11.3073C11.7357 12.9233 12.1466 13.0935 12.4496 13.3965C12.7525 13.6994 12.9227 14.1103 12.9227 14.5388C12.9227 14.9672 12.7525 15.3781 12.4496 15.6811C12.1466 15.984 11.7357 16.1542 11.3073 16.1542Z" fill="#03835E"/>
<path d="M11.3073 22.6161H8.07643C7.64799 22.6161 7.2371 22.4459 6.93415 22.143C6.6312 21.84 6.461 21.4291 6.461 21.0007C6.461 20.5722 6.6312 20.1614 6.93415 19.8584C7.2371 19.5555 7.64799 19.3853 8.07643 19.3853H11.3073C11.7357 19.3853 12.1466 19.5555 12.4496 19.8584C12.7525 20.1614 12.9227 20.5722 12.9227 21.0007C12.9227 21.4291 12.7525 21.84 12.4496 22.143C12.1466 22.4459 11.7357 22.6161 11.3073 22.6161Z" fill="#03835E"/>
<path d="M9.69247 35.5394C9.05347 35.5394 8.42881 35.3499 7.8975 34.9949C7.36619 34.6399 6.95208 34.1353 6.70754 33.5449C6.46301 32.9545 6.39903 32.3049 6.52369 31.6782C6.64835 31.0515 6.95606 30.4758 7.40791 30.0239C7.85975 29.5721 8.43544 29.2644 9.06216 29.1397C9.68889 29.0151 10.3385 29.079 10.9289 29.3236C11.5192 29.5681 12.0238 29.9822 12.3788 30.5135C12.7338 31.0448 12.9233 31.6695 12.9233 32.3085C12.9233 33.1654 12.5829 33.9872 11.977 34.5931C11.3711 35.199 10.5494 35.5394 9.69247 35.5394Z" fill="#03835E"/>
<path d="M27.4615 9.69278H24.2307C23.8022 9.69278 23.3913 9.52258 23.0884 9.21963C22.7854 8.91668 22.6152 8.50578 22.6152 8.07735C22.6152 7.64891 22.7854 7.23801 23.0884 6.93506C23.3913 6.63211 23.8022 6.46191 24.2307 6.46191H27.4615C27.89 6.46191 28.3009 6.63211 28.6038 6.93506C28.9068 7.23801 29.077 7.64891 29.077 8.07735C29.077 8.50578 28.9068 8.91668 28.6038 9.21963C28.3009 9.52258 27.89 9.69278 27.4615 9.69278Z" fill="#03835E"/>
<path d="M27.4615 16.1542H24.2307C23.8022 16.1542 23.3913 15.984 23.0884 15.6811C22.7854 15.3781 22.6152 14.9672 22.6152 14.5388C22.6152 14.1103 22.7854 13.6994 23.0884 13.3965C23.3913 13.0935 23.8022 12.9233 24.2307 12.9233H27.4615C27.89 12.9233 28.3009 13.0935 28.6038 13.3965C28.9068 13.6994 29.077 14.1103 29.077 14.5388C29.077 14.9672 28.9068 15.3781 28.6038 15.6811C28.3009 15.984 27.89 16.1542 27.4615 16.1542Z" fill="#03835E"/>
<path d="M27.4615 22.6161H24.2307C23.8022 22.6161 23.3913 22.4459 23.0884 22.143C22.7854 21.84 22.6152 21.4291 22.6152 21.0007C22.6152 20.5722 22.7854 20.1614 23.0884 19.8584C23.3913 19.5555 23.8022 19.3853 24.2307 19.3853H27.4615C27.89 19.3853 28.3009 19.5555 28.6038 19.8584C28.9068 20.1614 29.077 20.5722 29.077 21.0007C29.077 21.4291 28.9068 21.84 28.6038 22.143C28.3009 22.4459 27.89 22.6161 27.4615 22.6161Z" fill="#03835E"/>
<path d="M25.8468 35.5394C25.2078 35.5394 24.5832 35.3499 24.0519 34.9949C23.5205 34.6399 23.1064 34.1353 22.8619 33.5449C22.6174 32.9545 22.5534 32.3049 22.678 31.6782C22.8027 31.0515 23.1104 30.4758 23.5623 30.0239C24.0141 29.5721 24.5898 29.2644 25.2165 29.1397C25.8432 29.0151 26.4929 29.079 27.0832 29.3236C27.6736 29.5681 28.1782 29.9822 28.5332 30.5135C28.8882 31.0448 29.0777 31.6695 29.0777 32.3085C29.0777 33.1654 28.7373 33.9872 28.1314 34.5931C27.5255 35.199 26.7037 35.5394 25.8468 35.5394Z" fill="#03835E"/>
<path d="M43.6159 9.69278H40.3851C39.9566 9.69278 39.5458 9.52258 39.2428 9.21963C38.9398 8.91668 38.7697 8.50578 38.7697 8.07735C38.7697 7.64891 38.9398 7.23801 39.2428 6.93506C39.5458 6.63211 39.9566 6.46191 40.3851 6.46191H43.6159C44.0444 6.46191 44.4553 6.63211 44.7582 6.93506C45.0612 7.23801 45.2314 7.64891 45.2314 8.07735C45.2314 8.50578 45.0612 8.91668 44.7582 9.21963C44.4553 9.52258 44.0444 9.69278 43.6159 9.69278Z" fill="#03835E"/>
<path d="M43.6159 16.1542H40.3851C39.9566 16.1542 39.5458 15.984 39.2428 15.6811C38.9398 15.3781 38.7697 14.9672 38.7697 14.5388C38.7697 14.1103 38.9398 13.6994 39.2428 13.3965C39.5458 13.0935 39.9566 12.9233 40.3851 12.9233H43.6159C44.0444 12.9233 44.4553 13.0935 44.7582 13.3965C45.0612 13.6994 45.2314 14.1103 45.2314 14.5388C45.2314 14.9672 45.0612 15.3781 44.7582 15.6811C44.4553 15.984 44.0444 16.1542 43.6159 16.1542Z" fill="#03835E"/>
<path d="M43.6159 22.6161H40.3851C39.9566 22.6161 39.5458 22.4459 39.2428 22.143C38.9398 21.84 38.7697 21.4291 38.7697 21.0007C38.7697 20.5722 38.9398 20.1614 39.2428 19.8584C39.5458 19.5555 39.9566 19.3853 40.3851 19.3853H43.6159C44.0444 19.3853 44.4553 19.5555 44.7582 19.8584C45.0612 20.1614 45.2314 20.5722 45.2314 21.0007C45.2314 21.4291 45.0612 21.84 44.7582 22.143C44.4553 22.4459 44.0444 22.6161 43.6159 22.6161Z" fill="#03835E"/>
<path d="M42.0011 35.5394C41.3621 35.5394 40.7375 35.3499 40.2062 34.9949C39.6748 34.6399 39.2607 34.1353 39.0162 33.5449C38.7717 32.9545 38.7077 32.3049 38.8323 31.6782C38.957 31.0515 39.2647 30.4758 39.7166 30.0239C40.1684 29.5721 40.7441 29.2644 41.3708 29.1397C41.9975 29.0151 42.6472 29.079 43.2375 29.3236C43.8279 29.5681 44.3325 29.9822 44.6875 30.5135C45.0425 31.0448 45.232 31.6695 45.232 32.3085C45.232 33.1654 44.8916 33.9872 44.2857 34.5931C43.6798 35.199 42.858 35.5394 42.0011 35.5394Z" fill="#03835E"/>
</svg>
