<svg width="50" height="50" viewBox="0 0 50 50" fill="none" xmlns="http://www.w3.org/2000/svg">
<circle cx="25" cy="25.0002" r="25" transform="rotate(-180 25 25.0002)" fill="#1DAB87"/>
<path d="M21.6592 15.0003C21.8727 14.9996 22.0836 15.0444 22.2765 15.1313C22.4693 15.2182 22.6392 15.345 22.7737 15.5024L29.675 23.6445C29.8851 23.8873 30 24.1919 30 24.5062C30 24.8205 29.8851 25.1251 29.675 25.3679L22.5308 33.51C22.2883 33.7871 21.9398 33.9614 21.562 33.9945C21.1841 34.0276 20.808 33.9168 20.5162 33.6864C20.2244 33.4561 20.0409 33.1251 20.006 32.7663C19.9712 32.4074 20.0879 32.0502 20.3304 31.773L26.7173 24.4994L20.5447 17.2258C20.37 17.0267 20.259 16.7841 20.2249 16.5269C20.1908 16.2697 20.235 16.0085 20.3522 15.7744C20.4695 15.5403 20.6549 15.343 20.8865 15.2058C21.1181 15.0686 21.3863 14.9973 21.6592 15.0003Z" fill="white"/>
</svg>
