<svg width="25" height="25" viewBox="0 0 25 25" fill="none" xmlns="http://www.w3.org/2000/svg">
<g clip-path="url(#clip0_246_1962)">
<path d="M21.8752 19.5835L17.3513 15.0595M17.3513 15.0595C18.1251 14.2857 18.7389 13.367 19.1577 12.3559C19.5765 11.3448 19.7921 10.2612 19.7921 9.1668C19.7921 8.07242 19.5765 6.98876 19.1577 5.97769C18.7389 4.96662 18.1251 4.04793 17.3513 3.27409C16.5774 2.50025 15.6587 1.88641 14.6477 1.46761C13.6366 1.04881 12.5529 0.833252 11.4585 0.833252C10.3642 0.833252 9.28051 1.04881 8.26944 1.46761C7.25836 1.88641 6.33968 2.50025 5.56584 3.27409C4.003 4.83694 3.125 6.95661 3.125 9.1668C3.125 11.377 4.003 13.4967 5.56584 15.0595C7.12868 16.6224 9.24835 17.5003 11.4585 17.5003C13.6687 17.5003 15.7884 16.6224 17.3513 15.0595Z" stroke="#697077" stroke-width="2.5" stroke-linecap="round" stroke-linejoin="round"/>
</g>
<defs>
<clipPath id="clip0_246_1962">
<rect width="25" height="25" fill="white"/>
</clipPath>
</defs>
</svg>
