<svg width="67" height="67" viewBox="0 0 67 67" fill="none" xmlns="http://www.w3.org/2000/svg">
<path d="M8.37496 32.7082H17.5416V45.4582H4.79163V43.8748H13.9583H15.9583V41.8748V36.2915V34.2915H13.9583H4.79163V21.5415H17.5416V23.1248H8.37496H6.37496V25.1248V30.7082V32.7082H8.37496ZM53.0416 32.7082H62.2083V45.4582H49.4583V43.8748H58.625H60.625V41.8748V36.2915V34.2915H58.625H49.4583V21.5415H62.2083V23.1248H53.0416H51.0416V25.1248V30.7082V32.7082H53.0416ZM27.3125 41.8748V43.8748H29.3125H37.6875H39.6875V41.8748V25.1248V23.1248H37.6875H29.3125H27.3125V25.1248V41.8748ZM25.7291 45.4582V21.5415H41.2708V45.4582H25.7291Z" fill="#03835E" stroke="#03835E" stroke-width="4"/>
</svg>
