<svg width="180" height="179" viewBox="0 0 180 179" fill="none" xmlns="http://www.w3.org/2000/svg">
<path d="M172.509 88.8491L172.176 89.2368L172.509 89.6244C175.203 92.7602 177.091 96.5061 178.01 100.537C178.928 104.568 178.849 108.762 177.779 112.756C176.71 116.749 174.681 120.422 171.871 123.454C169.06 126.486 165.552 128.786 161.651 130.155L161.169 130.324L161.264 130.827C162.029 134.889 161.791 139.078 160.57 143.028C159.35 146.978 157.184 150.57 154.261 153.493C151.338 156.417 147.745 158.583 143.795 159.803C139.845 161.023 135.657 161.261 131.594 160.496L131.092 160.402L130.923 160.884C129.554 164.786 127.255 168.294 124.223 171.106C121.191 173.917 117.519 175.946 113.526 177.017C109.532 178.087 105.337 178.167 101.306 177.249C97.2746 176.331 93.5282 174.443 90.3918 171.749L90.0042 171.416L89.6166 171.749C86.4801 174.442 82.7339 176.33 78.7029 177.247C74.6719 178.165 70.4778 178.085 66.4846 177.015C62.4913 175.945 58.8194 173.917 55.7875 171.107C52.7555 168.296 50.4551 164.788 49.0857 160.888L48.9164 160.405L48.4142 160.5C44.3516 161.266 40.1635 161.029 36.2134 159.809C32.2633 158.589 28.6706 156.424 25.7471 153.5C22.8236 150.577 20.6577 146.985 19.4375 143.035C18.2172 139.085 17.9794 134.897 18.7447 130.834L18.8393 130.332L18.3569 130.163C14.4552 128.795 10.9464 126.495 8.13498 123.463C5.32359 120.431 3.29457 116.759 2.22402 112.766C1.15347 108.772 1.07378 104.578 1.9918 100.546C2.90982 96.5149 4.79784 92.7684 7.492 89.6321L7.82496 89.2445L7.49206 88.8568C4.79872 85.7204 2.91126 81.9742 1.9935 77.9432C1.07574 73.9122 1.15537 69.7181 2.22545 65.7249C3.29553 61.7316 5.32378 58.0597 8.13422 55.0278C10.9447 51.9958 14.4524 49.6954 18.3532 48.326L18.8353 48.1567L18.7408 47.6546C17.9762 43.592 18.2142 39.4042 19.4344 35.4544C20.6545 31.5047 22.8199 27.9122 25.7427 24.9887C28.6654 22.0652 32.2573 19.899 36.2067 18.6778C40.1562 17.4567 44.3439 17.2175 48.4067 17.9811L48.9088 18.0755L49.078 17.5935C50.4474 13.6927 52.7478 10.1849 55.7797 7.3745C58.8117 4.56406 62.4836 2.53583 66.4768 1.46575C70.4701 0.395663 74.6642 0.316047 78.6952 1.23381C82.7262 2.15157 86.4724 4.03899 89.6088 6.73234L89.9966 7.06534L90.3842 6.73215C93.5197 4.03697 97.2656 2.14786 101.297 1.22883C105.328 0.309806 109.523 0.388645 113.516 1.4585C117.51 2.52836 121.183 4.55689 124.215 7.36799C127.246 10.1791 129.546 13.6878 130.915 17.5894L131.084 18.0718L131.586 17.9772C135.649 17.2124 139.837 17.4505 143.788 18.6708C147.738 19.8911 151.33 22.0568 154.254 24.9801C157.178 27.9033 159.344 31.4957 160.565 35.4457C161.785 39.3957 162.024 43.5838 161.26 47.6469L161.165 48.149L161.647 48.3182C165.548 49.6876 169.056 51.9881 171.866 55.02C174.677 58.052 176.705 61.7239 177.775 65.7171C178.845 69.7104 178.925 73.9044 178.007 77.9354C177.089 81.9664 175.202 85.7127 172.509 88.8491Z" fill="#1D6F00" stroke="url(#paint0_linear_2134_2348)" stroke-width="1.18987"/>
<path d="M73.9805 123.303L49.1815 98.5193C48.2404 97.5766 47.7117 96.299 47.7117 94.9669C47.7117 93.6348 48.2404 92.3572 49.1815 91.4145L52.1944 88.3978C53.1371 87.4567 54.4147 86.9281 55.7467 86.9281C57.0788 86.9281 58.3565 87.4567 59.2991 88.3978L77.3259 106.413L119.78 61.2977C120.694 60.3284 121.955 59.7612 123.286 59.7206C124.617 59.68 125.91 60.1693 126.881 61.0811L129.975 64.0011C130.946 64.9148 131.514 66.1764 131.554 67.5087C131.595 68.8409 131.105 70.1348 130.192 71.1059L81.2051 123.191C80.7439 123.682 80.1885 124.076 79.572 124.349C78.9555 124.621 78.2906 124.767 77.6166 124.778C76.9426 124.788 76.2733 124.663 75.6487 124.409C75.024 124.156 74.4567 123.78 73.9805 123.303Z" fill="white"/>
<defs>
<linearGradient id="paint0_linear_2134_2348" x1="90.0012" y1="-0.00158691" x2="90.0012" y2="178.478" gradientUnits="userSpaceOnUse">
<stop stop-color="#D4B71E"/>
<stop offset="0.404" stop-color="#958429" stop-opacity="0.596"/>
<stop offset="1" stop-color="#393838" stop-opacity="0"/>
</linearGradient>
</defs>
</svg>
