<svg width="39" height="50" viewBox="0 0 39 50" fill="none" xmlns="http://www.w3.org/2000/svg">
<path d="M34.3333 2.3335H4.99992C3.52716 2.3335 2.33325 3.5274 2.33325 5.00016V45.0002C2.33325 46.4729 3.52716 47.6668 4.99992 47.6668H34.3333C35.806 47.6668 36.9999 46.4729 36.9999 45.0002V5.00016C36.9999 3.5274 35.806 2.3335 34.3333 2.3335Z" stroke="#03835E" stroke-width="3"/>
<path d="M10.9998 11.6665H6.9998C6.63161 11.6665 6.33313 11.965 6.33313 12.3332V17.6665C6.33313 18.0347 6.63161 18.3332 6.9998 18.3332H10.9998C11.368 18.3332 11.6665 18.0347 11.6665 17.6665V12.3332C11.6665 11.965 11.368 11.6665 10.9998 11.6665Z" fill="#03835E"/>
<path d="M10.9998 22.3335H6.9998C6.63161 22.3335 6.33313 22.632 6.33313 23.0002V28.3335C6.33313 28.7017 6.63161 29.0002 6.9998 29.0002H10.9998C11.368 29.0002 11.6665 28.7017 11.6665 28.3335V23.0002C11.6665 22.632 11.368 22.3335 10.9998 22.3335Z" fill="#03835E"/>
<path d="M10.9998 33H6.9998C6.63161 33 6.33313 33.2985 6.33313 33.6667V39C6.33313 39.3682 6.63161 39.6667 6.9998 39.6667H10.9998C11.368 39.6667 11.6665 39.3682 11.6665 39V33.6667C11.6665 33.2985 11.368 33 10.9998 33Z" fill="#03835E"/>
<path d="M32.3331 14.3335H14.9998C14.6316 14.3335 14.3331 14.632 14.3331 15.0002V16.3335C14.3331 16.7017 14.6316 17.0002 14.9998 17.0002H32.3331C32.7013 17.0002 32.9998 16.7017 32.9998 16.3335V15.0002C32.9998 14.632 32.7013 14.3335 32.3331 14.3335Z" fill="#03835E"/>
<path d="M32.3331 25H14.9998C14.6316 25 14.3331 25.2985 14.3331 25.6667V27C14.3331 27.3682 14.6316 27.6667 14.9998 27.6667H32.3331C32.7013 27.6667 32.9998 27.3682 32.9998 27V25.6667C32.9998 25.2985 32.7013 25 32.3331 25Z" fill="#03835E"/>
<path d="M32.3331 35.6665H14.9998C14.6316 35.6665 14.3331 35.965 14.3331 36.3332V37.6665C14.3331 38.0347 14.6316 38.3332 14.9998 38.3332H32.3331C32.7013 38.3332 32.9998 38.0347 32.9998 37.6665V36.3332C32.9998 35.965 32.7013 35.6665 32.3331 35.6665Z" fill="#03835E"/>
</svg>
