<svg width="28" height="22" viewBox="0 0 28 22" fill="none" xmlns="http://www.w3.org/2000/svg">
<path d="M5.9845 5.93074H5.98463C7.38305 5.92998 8.72395 5.37401 9.71263 4.38503L11.1028 2.99824L11.103 2.998C11.3695 2.73147 11.7306 2.58133 12.1075 2.58043H16.0337C16.0337 2.58043 16.0337 2.58043 16.0338 2.58043C16.4117 2.58053 16.7741 2.73073 17.0413 2.998L17.0413 2.99803L18.4283 4.38503C18.4283 4.38504 18.4283 4.38505 18.4284 4.38506C18.9183 4.87516 19.5 5.26393 20.1403 5.52914C20.7806 5.79436 21.4668 5.93082 22.1598 5.93074C22.1598 5.93074 22.1598 5.93074 22.1598 5.93074H24.1231C24.5011 5.93074 24.8636 6.08089 25.1308 6.34816C25.3981 6.61543 25.5482 6.97793 25.5482 7.3559V17.4068C25.5482 17.7848 25.3981 18.1473 25.1308 18.4146C24.8636 18.6818 24.5011 18.832 24.1231 18.832H4.02121C3.64324 18.832 3.28074 18.6818 3.01347 18.4146C2.74621 18.1473 2.59606 17.7848 2.59606 17.4068V7.3559C2.59606 6.97793 2.74621 6.61543 3.01347 6.34816C3.28074 6.08089 3.64324 5.93074 4.02121 5.93074H5.9845ZM19.9679 2.84719L19.9679 2.84717L18.5809 1.46017C18.5809 1.46016 18.5809 1.46015 18.5809 1.46014C17.9059 0.784919 16.9903 0.405477 16.0355 0.405273H16.0354H12.1089H12.1088C11.154 0.405477 10.2385 0.784919 9.56342 1.46014C9.56341 1.46015 9.5634 1.46016 9.56339 1.46017L8.17639 2.84717L8.17636 2.8472C7.59509 3.42864 6.80666 3.7554 5.9845 3.75559C5.98448 3.75559 5.98446 3.75559 5.98444 3.75559H4.02121C3.06635 3.75559 2.1506 4.1349 1.47541 4.81009C0.800216 5.48528 0.420898 6.40104 0.420898 7.3559V17.4068C0.420898 18.3617 0.800216 19.2775 1.47541 19.9526C2.1506 20.6278 3.06635 21.0072 4.02121 21.0072H24.1231C25.078 21.0072 25.9937 20.6278 26.6689 19.9526C27.3441 19.2775 27.7234 18.3617 27.7234 17.4068V7.3559C27.7234 6.40104 27.3441 5.48528 26.6689 4.81009C25.9937 4.1349 25.078 3.75559 24.1231 3.75559H22.1599C22.1598 3.75559 22.1598 3.75559 22.1598 3.75559C21.3376 3.7554 20.5492 3.42864 19.9679 2.84719Z" fill="#1DAB87" stroke="#1DAB87" stroke-width="0.5"/>
<path d="M14.0722 15.4816C13.0278 15.4816 12.0262 15.0667 11.2877 14.3282C10.5492 13.5897 10.1343 12.5881 10.1343 11.5437C10.1343 10.4993 10.5492 9.4977 11.2877 8.7592C12.0262 8.0207 13.0278 7.60582 14.0722 7.60582C15.1166 7.60582 16.1182 8.0207 16.8567 8.7592C17.5952 9.4977 18.0101 10.4993 18.0101 11.5437C18.0101 12.5881 17.5952 13.5897 16.8567 14.3282C16.1182 15.0667 15.1166 15.4816 14.0722 15.4816ZM14.0722 17.6568C15.6935 17.6568 17.2483 17.0127 18.3948 15.8663C19.5412 14.7199 20.1852 13.165 20.1852 11.5437C20.1852 9.92243 19.5412 8.36755 18.3948 7.22113C17.2483 6.07472 15.6935 5.43066 14.0722 5.43066C12.4509 5.43066 10.896 6.07472 9.7496 7.22113C8.60318 8.36755 7.95913 9.92243 7.95913 11.5437C7.95913 13.165 8.60318 14.7199 9.7496 15.8663C10.896 17.0127 12.4509 17.6568 14.0722 17.6568ZM5.62785 8.96243C5.83181 8.75847 5.9464 8.48184 5.9464 8.1934C5.9464 7.90496 5.83181 7.62833 5.62785 7.42437C5.42389 7.2204 5.14726 7.10582 4.85882 7.10582C4.57037 7.10582 4.29375 7.2204 4.08978 7.42437C3.88582 7.62833 3.77124 7.90496 3.77124 8.1934C3.77124 8.48184 3.88582 8.75847 4.08978 8.96243C4.29375 9.16639 4.57037 9.28098 4.85882 9.28098C5.14726 9.28098 5.42389 9.16639 5.62785 8.96243Z" fill="#1DAB87" stroke="#1DAB87" stroke-width="0.5"/>
</svg>
