<svg width="29" height="27" viewBox="0 0 29 27" fill="none" xmlns="http://www.w3.org/2000/svg">
<g clip-path="url(#clip0_2285_7286)">
<path d="M2.03649 8.84663C1.93782 8.84663 1.85167 8.78241 1.82348 8.68687C1.79529 8.59289 1.83288 8.49108 1.91589 8.43783L14.1312 0.536024C14.1672 0.51253 14.2095 0.5 14.2518 0.5C14.2941 0.5 14.3364 0.51253 14.3724 0.536024L26.5861 8.43783C26.6691 8.49108 26.7067 8.59289 26.6785 8.68687C26.6504 8.78084 26.5642 8.84663 26.4655 8.84663H2.03649Z" fill="#F8BE2C"/>
<path d="M8.32482 10.2782H5.13904V22.4042H8.32482V10.2782Z" fill="#F8BE2C"/>
<path d="M7.43676 10.5006H6.02869V22.1818H7.43676V10.5006Z" fill="#F1F0EF"/>
<path d="M13.3619 10.2782H10.1761V22.4042H13.3619V10.2782Z" fill="#F8BE2C"/>
<path d="M12.474 10.5006H11.0659V22.1818H12.474V10.5006Z" fill="#F1F0EF"/>
<path d="M18.4006 10.2782H15.2148V22.4042H18.4006V10.2782Z" fill="#F8BE2C"/>
<path d="M17.5111 10.5006H16.103V22.1818H17.5111V10.5006Z" fill="#F1F0EF"/>
<path d="M23.4377 10.2782H20.252V22.4042H23.4377V10.2782Z" fill="#F8BE2C"/>
<path d="M22.5482 10.5006H21.1401V22.1818H22.5482V10.5006Z" fill="#F1F0EF"/>
<path d="M26.4746 21.9594H2.02832C1.90548 21.9594 1.80591 22.059 1.80591 22.1819V24.0582C1.80591 24.1811 1.90548 24.2806 2.02832 24.2806H26.4746C26.5974 24.2806 26.697 24.1811 26.697 24.0582V22.1819C26.697 22.059 26.5974 21.9594 26.4746 21.9594Z" fill="#F8BE2C"/>
<path d="M26.4748 8.62416V10.5005H2.02856V8.62416H26.4748ZM26.4748 8.17934H2.02856C1.78266 8.17934 1.58374 8.37825 1.58374 8.62416V10.5005C1.58374 10.7464 1.78266 10.9454 2.02856 10.9454H26.4748C26.7207 10.9454 26.9196 10.7464 26.9196 10.5005V8.62416C26.9196 8.37825 26.7207 8.17934 26.4748 8.17934Z" fill="#C6A62E"/>
<path d="M26.4746 8.40178H2.02832C1.90548 8.40178 1.80591 8.50136 1.80591 8.62419V10.5006C1.80591 10.6234 1.90548 10.723 2.02832 10.723H26.4746C26.5974 10.723 26.697 10.6234 26.697 10.5006V8.62419C26.697 8.50136 26.5974 8.40178 26.4746 8.40178Z" fill="#F8BE2C"/>
<path d="M26.4747 9.24138H2.02844V9.88355H26.4747V9.24138Z" fill="#F1F0EF"/>
<path d="M28.0302 23.8217H0.473322C0.342704 23.8217 0.236816 23.9276 0.236816 24.0582V25.933C0.236816 26.0636 0.342704 26.1695 0.473322 26.1695H28.0302C28.1608 26.1695 28.2667 26.0636 28.2667 25.933V24.0582C28.2667 23.9276 28.1608 23.8217 28.0302 23.8217Z" fill="#F8BE2C"/>
<path d="M28.0299 24.0581V25.9345H0.471446V24.0581H28.0299ZM28.0299 23.5867H0.471446C0.211446 23.5867 0 23.7981 0 24.0581V25.9345C0 26.1945 0.211446 26.406 0.471446 26.406H28.0299C28.2899 26.406 28.5013 26.1945 28.5013 25.9345V24.0581C28.5013 23.7981 28.2899 23.5867 28.0299 23.5867Z" fill="#C6A62E"/>
<path d="M14.2517 6.89666C13.0269 6.89666 12.0292 5.89895 12.0292 4.67413C12.0292 3.44931 13.0269 2.4516 14.2517 2.4516C15.4765 2.4516 16.4742 3.44931 16.4742 4.67413C16.4742 5.89895 15.4765 6.89666 14.2517 6.89666Z" fill="#F1F0EF"/>
<path d="M14.2516 2.67402C15.3558 2.67402 16.2517 3.56992 16.2517 4.67414C16.2517 5.77836 15.3558 6.67426 14.2516 6.67426C13.1474 6.67426 12.2515 5.77836 12.2515 4.67414C12.2515 3.56992 13.1474 2.67402 14.2516 2.67402ZM14.2516 2.2292C12.903 2.2292 11.8066 3.32559 11.8066 4.67414C11.8066 6.0227 12.903 7.11908 14.2516 7.11908C15.6001 7.11908 16.6965 6.0227 16.6965 4.67414C16.6965 3.32559 15.6001 2.2292 14.2516 2.2292Z" fill="#C6A62E"/>
<path d="M13.6172 5.1189C13.6172 5.40553 13.9007 5.63734 14.25 5.63734C14.5992 5.63734 14.8843 5.37264 14.8843 5.1189C14.8843 4.86517 14.7104 4.69758 14.2954 4.67408C13.8803 4.64902 13.6172 4.48926 13.6172 4.22926C13.6172 3.89095 13.9007 3.71083 14.25 3.71083C14.5992 3.71083 14.8843 3.94264 14.8843 4.22926" stroke="#18181D" stroke-width="0.225542" stroke-linecap="round" stroke-linejoin="round"/>
<path d="M14.2515 5.69063V6.04304" stroke="#18181D" stroke-width="0.225542" stroke-linecap="round" stroke-linejoin="round"/>
<path d="M14.2515 3.30365V3.69208" stroke="#18181D" stroke-width="0.225542" stroke-linecap="round" stroke-linejoin="round"/>
<g style="mix-blend-mode:multiply">
<path d="M26.4748 24.0582V22.1818H23.2154V10.5006H26.4748V8.62423H26.4654L14.2517 0.722427L14.1405 0.794476V10.5006H15.4374V22.1818H14.1405V25.9346H28.0301V24.0582H26.4748ZM20.4745 22.1818H18.1783V10.5006H20.4745V22.1818Z" fill="#E6E7E8"/>
</g>
</g>
<defs>
<clipPath id="clip0_2285_7286">
<rect width="28.506" height="26" fill="white" transform="translate(0 0.5)"/>
</clipPath>
</defs>
</svg>
